<?xml version="1.0" encoding="utf-8"?>
<!-- Generator: Adobe Illustrator 24.2.3, SVG Export Plug-In . SVG Version: 6.00 Build 0)  -->
<svg version="1.1" id="Layer_1" xmlns="http://www.w3.org/2000/svg" xmlns:xlink="http://www.w3.org/1999/xlink" x="0px" y="0px"
	 viewBox="0 0 750 500" style="enable-background:new 0 0 750 500;" xml:space="preserve">
<style type="text/css">
	.st0{fill-rule:evenodd;clip-rule:evenodd;fill:#FAD57B;}
	.st1{clip-path:url(#SVGID_2_);}
	.st2{fill-rule:evenodd;clip-rule:evenodd;fill:#F59E00;}
	.st3{fill-rule:evenodd;clip-rule:evenodd;fill:#2B61AB;}
	.st4{clip-path:url(#SVGID_4_);}
	.st5{fill-rule:evenodd;clip-rule:evenodd;fill:#1D4882;}
	.st6{fill-rule:evenodd;clip-rule:evenodd;fill:#1A3F73;}
	.st7{fill:#F59F00;}
	.st8{fill-rule:evenodd;clip-rule:evenodd;}
	.st9{fill-rule:evenodd;clip-rule:evenodd;fill:#FFFFFF;}
	.st10{fill:#F9C1B6;}
	.st11{fill-rule:evenodd;clip-rule:evenodd;fill:#F9C1B6;}
	.st12{clip-path:url(#SVGID_6_);}
	.st13{fill-rule:evenodd;clip-rule:evenodd;fill:#ECE8E9;}
	.st14{clip-path:url(#SVGID_8_);}
	.st15{fill:#2B61AB;}
	.st16{fill:#3E73BF;}
	.st17{fill-rule:evenodd;clip-rule:evenodd;fill:#6396E3;}
	.st18{fill-rule:evenodd;clip-rule:evenodd;fill:#3E73BF;}
	.st19{fill-rule:evenodd;clip-rule:evenodd;fill:#193F73;}
	.st20{fill:#193F73;}
	.st21{fill:#1C243E;}
	.st22{fill-rule:evenodd;clip-rule:evenodd;fill:#FABDB4;}
	.st23{fill-rule:evenodd;clip-rule:evenodd;fill:#FFA59B;}
	.st24{fill-rule:evenodd;clip-rule:evenodd;fill:#FFF4EC;}
	.st25{fill-rule:evenodd;clip-rule:evenodd;fill:#FFA389;}
	.st26{clip-path:url(#SVGID_10_);}
	.st27{clip-path:url(#SVGID_12_);}
	.st28{fill-rule:evenodd;clip-rule:evenodd;fill:#7195CE;}
	.st29{fill-rule:evenodd;clip-rule:evenodd;fill:#FFA49B;}
	.st30{fill-rule:evenodd;clip-rule:evenodd;fill:#FF989C;}
	.st31{clip-path:url(#SVGID_14_);}
	.st32{fill:#ECEEEE;}
	.st33{clip-path:url(#SVGID_16_);}
	.st34{fill-rule:evenodd;clip-rule:evenodd;fill:#B1BACA;}
	.st35{fill:#90CAF9;}
	.st36{font-family:'MyriadPro-Regular';}
	.st37{font-size:61.0219px;}
	.st38{font-size:62.7463px;}
	.st39{fill:#1D262D;}
</style>
<g id="BACKGROUND">
</g>
<g id="OBJECTS">
	<g transform="matrix(-3.1206,-3.97938,-3.00839,2.58077,1835.33,223.681)">
		<path class="st0" d="M156,274.3c5.6,4.4,1.6,15.4-6.9,14.1c-5-0.8-10.1-9.6-4.4-14.1c5.6-4.4-4.6-6.3,0-11.5s2.7-3.6,2.4-9
			c-0.1-1.9,0.6-4.3,2.8-4.8c2.3-0.6,4,2.7,3.8,4.8c-0.3,5.5-2.3,3.8,2.4,9C160.6,268,150.4,269.8,156,274.3z"/>
		<g>
			<g>
				<defs>
					<path id="SVGID_1_" d="M156,274.3c5.6,4.4,1.6,15.4-6.9,14.1c-5-0.8-10.1-9.6-4.4-14.1c5.6-4.4-4.6-6.3,0-11.5s2.7-3.6,2.4-9
						c-0.1-1.9,0.6-4.3,2.8-4.8c2.3-0.6,4,2.7,3.8,4.8c-0.3,5.5-2.3,3.8,2.4,9C160.6,268,150.4,269.8,156,274.3z"/>
				</defs>
				<clipPath id="SVGID_2_">
					<use xlink:href="#SVGID_1_"  style="overflow:visible;"/>
				</clipPath>
				<g class="st1">
					<g transform="matrix(0.165869,0.0853633,-0.07045,0.200981,168.545,258.543)">
						<path class="st2" d="M-75.6,89.7c-0.5-1-0.9-2.1-1.4-3.1c-4.7-10.7-9.3-21.6-13.5-32.7l-0.3-0.7c-1.4-4-3.3-9.3-3.3-9.3
							l-1.1-3.3c-2.9-8.5-5.8-17.1-9.2-25.4l0.3-1.3c0.3,0.1,0.7,0.2,1,0.4c4,8.2,7.4,16.7,11,25.1l1.4,3.2c1.1,2.6,2.1,5.1,3.2,7.7
							l0.6,1.5c0.6,1.6,1.3,3.3,1.9,4.9c3.5,8.9,7.2,17.6,11,26.2c0.9-2.8,2.1-5.5,3.1-8.1c1.5-3.9,3.1-7.9,4.6-11.8
							c0,0,2.4-5.7,4.1-10c0,0,0.2-0.5,0.5,0.2C-64.8,62.8-68.4,72-72,81.5c-0.4,1.2-0.8,2.4-1.2,3.6c7.8,17.8,16,35.4,23.8,53.4
							c0.1,0.3,0.3,0.6,0.4,0.9c0.3-0.9,0.6-1.7,1-2.6l0.1-0.2c4.1-9,9.6-17.3,13.6-26.3l1.2-0.6c0,0,0.3,0.7,0.4,1.1
							c-3.8,9.1-9,17.4-13,26.4c0,0-1,2.1-2.2,4.6c6.7,15.5,13.6,30.9,20.8,46.2l2.2,5.9c0.2,1.1,0.2,1.1,0.3,2.1l-0.6,2.2
							c0,0-1.4-0.6-2.1-1c0,0-0.7-0.8-1.7-1.9c-1.1-2-2.7-4.8-2.7-4.8c-8.4-18-16.3-36.3-24.2-54.6c-4.1-0.4-8.3-1-12.4-1.7
							l-4.6-0.8c-1.2-0.3-2.8-0.6-2.8-0.6c-0.4-0.1-0.9-0.2-1.3-0.3c-1-0.2-2-0.5-3-0.7c-1.4-0.3-2.1-0.4-2.1-0.4l-0.6-0.7
							c0,0,0.5-0.5,1.2-0.5c2.6,0.2,6.2,0.6,6.2,0.6c1.3,0.2,2.8,0.4,2.8,0.4c5.3,1,10.5,2.2,15.8,2.9
							c-5.9-13.9-11.8-27.8-17.9-41.6c-7-5.6-14.6-10.7-22.4-15.1c0,0-3.9-2.4-6.5-3.9c0,0-0.5-0.9,0.8-0.3c2.6,1.2,6.3,3,6.3,3
							C-88.9,80.2-82,84.7-75.6,89.7z"/>
					</g>
				</g>
			</g>
		</g>
	</g>
	<g transform="matrix(-3.64951,3.84781,2.85217,2.47614,-120.826,-1084.84)">
		<path class="st3" d="M170.3,320.3c5.6,4.4,1.6,15.4-6.9,14.1c-5-0.8-10.1-9.6-4.4-14.1c5.6-4.4-4.6-6.3,0-11.5s2.7-3.6,2.4-9
			c-0.1-1.9,0.6-4.3,2.8-4.8c2.3-0.6,4,2.7,3.8,4.8c-0.3,5.5-2.3,3.8,2.4,9C174.9,314,164.7,315.9,170.3,320.3z"/>
		<g>
			<g>
				<defs>
					<path id="SVGID_3_" d="M170.3,320.3c5.6,4.4,1.6,15.4-6.9,14.1c-5-0.8-10.1-9.6-4.4-14.1c5.6-4.4-4.6-6.3,0-11.5s2.7-3.6,2.4-9
						c-0.1-1.9,0.6-4.3,2.8-4.8c2.3-0.6,4,2.7,3.8,4.8c-0.3,5.5-2.3,3.8,2.4,9C174.9,314,164.7,315.9,170.3,320.3z"/>
				</defs>
				<clipPath id="SVGID_4_">
					<use xlink:href="#SVGID_3_"  style="overflow:visible;"/>
				</clipPath>
				<g class="st4">
					<g transform="matrix(0.165869,0.0853633,-0.07045,0.200981,168.545,258.543)">
						<path class="st5" d="M80,252.7c-0.5-1-0.9-2.1-1.4-3.1c-4.7-10.7-9.3-21.6-13.5-32.7l-0.3-0.7c-1.4-4-3.3-9.3-3.3-9.3
							l-1.1-3.3c-2.9-8.5-5.8-17.1-9.2-25.4l0.3-1.3c0.3,0.1,0.7,0.2,1,0.4c4,8.2,7.4,16.7,11,25.1l1.4,3.2c1.1,2.6,2.1,5.1,3.2,7.7
							l0.6,1.5c0.6,1.6,1.3,3.3,1.9,4.9c3.5,8.9,7.2,17.6,11,26.2c0.9-2.8,2.1-5.5,3.1-8.1c1.5-3.9,3.1-7.9,4.6-11.8
							c0,0,2.4-5.7,4.1-10c0,0,0.2-0.5,0.5,0.2c-3.1,9.6-6.7,18.8-10.3,28.3c-0.4,1.2-0.8,2.4-1.2,3.6c7.8,17.8,16,35.4,23.8,53.4
							c0.1,0.3,0.3,0.6,0.4,0.9c0.3-0.9,0.6-1.7,1-2.6l0.1-0.2c4.1-9,9.6-17.3,13.6-26.3l1.2-0.6c0,0,0.3,0.7,0.4,1.1
							c-3.8,9.1-9,17.4-13,26.4c0,0-1,2.1-2.2,4.6c6.7,15.5,13.6,30.9,20.8,46.2l2.2,5.9c0.2,1.1,0.2,1.1,0.3,2.1l-0.6,2.2
							c0,0-1.4-0.6-2.1-1c0,0-0.7-0.8-1.7-1.9c-1.1-2-2.7-4.8-2.7-4.8c-8.4-18-16.3-36.3-24.2-54.6c-4.1-0.4-8.3-1-12.4-1.7
							l-4.6-0.8c-1.2-0.3-2.8-0.6-2.8-0.6c-0.4-0.1-0.9-0.2-1.3-0.3c-1-0.2-2-0.5-3-0.7c-1.4-0.3-2.1-0.4-2.1-0.4l-0.6-0.7
							c0,0,0.5-0.5,1.2-0.5c2.6,0.2,6.2,0.6,6.2,0.6c1.3,0.2,2.8,0.4,2.8,0.4c5.3,1,10.5,2.2,15.8,2.9C93,283.2,87.1,269.3,81,255.5
							c-7-5.6-14.6-10.7-22.4-15.1c0,0-3.9-2.4-6.5-3.9c0,0-0.5-0.9,0.8-0.3c2.6,1.2,6.3,3,6.3,3C66.6,243.2,73.5,247.6,80,252.7z"
							/>
					</g>
				</g>
			</g>
		</g>
	</g>
	<g transform="matrix(-0.392881,-0.22158,-0.194255,0.340593,949.224,382.027)">
		<path class="st3" d="M914.6,323.2c-37-42.8-7.2-96.8-12.3-145.7c-3.5-34.2-28.8-56.9-38.4-88.7c-6.5-21.7-1.7-42.7,3.6-64.1
			c6-24.2,13.7-47.7,20.4-71.7c1.4-5,3-9.8,3.9-14.9c0.1-0.5,1.1-7.6,1.4-7.6c8.5,0.8,18.9,19.5,22.8,25.6
			c21.1,33.2,16.6,71.5,14.7,108.9c-1.8,37,40.3,55,42.5,92.1c1.1,19.7-10.6,37-16.1,55.2c-3.8,12.6-2.1,26-6.1,38.6
			c-3.8,11.6-11.9,20.8-17.2,31.6c-7.1,14.5-10.2,29.9-14.6,45.2"/>
		<path class="st6" d="M917.4,324.9c-0.7,0.4-0.9,0.4-2.1,0.8c-0.2-0.3-0.3-0.5-0.5-0.8c-0.5-0.9-1.3-2.4-1.3-2.4s-0.9,0-1.4-1.6
			c-3.3-10.2-6.5-20.4-7-31.5v-0.1c0.2-14.6,3.7-28.9,7.3-42.9c0,0,1.1-3.9,2-7c0.4-1.4,0.8-2.8,1.2-4.2c6.1-21.9,9.8-45,4.3-67.2
			c-3.4-13.9-10.3-26.8-16.6-39.7c0,0-2.5-5.4-4.4-9.9c-2.7-6.7-5.2-13.6-6.7-20.6c-2-9.6-2.9-19.7-2.1-29.1c0,0,0,0.2,0-0.1
			c0.1-2.7,0-7,2.9-5.8c1.6,0.7,2.6,3.5,3.7,5.6c8.4,16.5,10.7,35.5,18.6,52.6c5.7,12.4,12.7,24.2,18.5,36.6
			c10,21.3,14.2,46.5,6.9,70.1c-6,19.6-17.3,37.4-23.2,57c-1.7,5.7-3.2,11.8-3.6,17.9v0.1c0.5,7.3,2.4,14.4,5.4,21l-1.1,0.9
			C917.9,324.7,917.6,324.8,917.4,324.9L917.4,324.9L917.4,324.9z"/>
	</g>
	<g transform="matrix(-0.425622,0.222613,0.246193,0.393424,582.968,-228.77)">
		<path class="st0" d="M1022.2,584.1c-37-42.8-7.2-96.8-12.3-145.7c-3.5-34.2-28.8-56.9-38.4-88.7c-6.5-21.7-1.7-42.7,3.6-64.1
			c6-24.2,13.7-47.7,20.4-71.7c1.4-5,3-9.8,3.9-14.9c0.1-0.5,1.1-7.6,1.4-7.6c8.5,0.8,18.9,19.5,22.8,25.6
			c21.1,33.2,16.6,71.5,14.7,108.9c-1.8,37,40.3,55,42.5,92.1c1.1,19.7-10.6,37-16.1,55.2c-3.8,12.6-2.1,26-6.1,38.6
			c-3.8,11.6-11.9,20.8-17.2,31.6c-7.1,14.5-10.2,29.9-14.6,45.2"/>
		<path class="st2" d="M1025,585.8c-0.7,0.4-0.9,0.4-2.1,0.8c-0.2-0.3-0.3-0.5-0.5-0.8c-0.5-0.9-1.3-2.4-1.3-2.4s-0.9,0-1.4-1.6
			c-3.3-10.2-6.5-20.4-7-31.5v-0.1c0.2-14.6,3.7-28.9,7.3-42.9c0,0,1.1-3.9,2-7c0.4-1.4,0.8-2.8,1.2-4.2c6.1-21.9,9.8-45,4.3-67.2
			c-3.4-13.9-10.3-26.8-16.6-39.7c0,0-2.5-5.4-4.4-9.9c-2.7-6.7-5.2-13.6-6.7-20.6c-2-9.6-2.9-19.7-2.1-29.1c0,0,0,0.2,0-0.1
			c0.1-2.7,0-7,2.9-5.8c1.6,0.7,2.6,3.5,3.7,5.6c8.4,16.5,10.7,35.5,18.6,52.6c5.7,12.4,12.7,24.2,18.5,36.6
			c10,21.3,14.2,46.5,6.9,70.1c-6,19.6-17.3,37.4-23.2,57c-1.7,5.7-3.2,11.8-3.6,17.9v0.1c0.5,7.3,2.4,14.4,5.4,21l-1.1,0.9
			C1025.4,585.6,1025.2,585.7,1025,585.8L1025,585.8L1025,585.8z"/>
	</g>
	<g transform="matrix(-0.0395028,0.498943,-0.464808,-0.00307966,194.812,-415.992)">
		<path class="st7" d="M1339.6-139.9c17.9-19,32.7-40.9,42.3-64.9l0.6-0.9c3.1-3.9,1.7-1.1,1.7-1.1c-0.1,1.2-0.2,2.3-0.2,2.3
			c-9.1,24.2-23.8,45.8-41.6,65.1l0.3,0.2l-0.9,1.2c-0.4,0.1-0.8,0.2-1,0.2c-1.1,1.2-2.3,2.4-3.5,3.6c2.7,10.3,10,18.9,16.1,27.1
			c13.9,18.7,28,37.8,33.9,60.2c0.6,2.3,1.4,5.8,1.4,5.8c0.4,3.4-0.6,7.6-2.7,6.3c0,0-0.9-1.4-1-1.4c-0.1-0.2-0.2-0.4-0.4-0.6
			c-9.2-15-21.2-27.3-31.1-42.5c-8.6-13.2-15.3-27.8-17.7-43.4c-0.5-3.1-0.7-6.2-0.8-9.3c-9.2,9.2-19,17.8-29.2,26l0.1,0.3
			c0,1-0.1,1-0.2,1.4c-4.8,20.2,3,41.5,4.4,63.5c0.9,14.9,1.2,30.4-2,44.1c-0.5,2-1.6,4.8-1.6,4.8c-0.2,0.2-0.3,0.5-0.5,0.7
			c-0.1,0.2-0.3,0.3-0.4,0.5c-0.1,0.1-0.2,0.2-0.3,0.3c-1.2,1.1-3.1,2.1-3.3-1.5c-0.2-2.1-1.4-8.8-2.4-14.4c-2.7-14-6-27.9-7.2-42.2
			c-1.4-16.9-2.6-34.6,4.9-49.6c0.4-0.8,0.9-1.6,1.4-2.4c-9.8,7.4-19.8,14.4-29.9,21c-2.6,1.7-5.2,3.4-7.8,5.1c0,0.2,0.3-0.8-0.8,3
			c-4.9,17-4.3,35.1-5.9,53.3c-1.1,12.8-2.7,25.6-4.3,38.4c-1.4,10.6-3.1,21.7-9.1,30c-0.5,0.7-1.6,1.2-1.6,1.2
			c-1.6,0-1.3,0.5-1.7-1.2c-0.8-2.9,0.3-6.6,0.1-10.5c-0.9-26.6-2.5-53.5,3-79.1c1.6-7.4,3.9-14.6,7.3-21.3c1.9-3.8,4.4-7,7.2-10.1
			c-14.3,9.1-28.8,18-43.3,26.9c-0.3,0.5-0.5,0.9-0.5,0.9c-1.4,1.8-1,2-1.1,2.6c-0.4,2-0.9,4.9-0.9,4.9c-0.1,0.4-0.1,0.8-0.2,1.1
			c-2,11.9-1.8,24.3-3.5,36.3c-2.3,15.8-7.5,31.3-13.3,46c-1.1,2.7-3.9,7.2-5.1,4.3c-0.6-1.5,0.4-3.5,0.5-3.9c0.2-2.7,0.4-5.4,0.6-8
			c1.5-20.2,1.3-40.6,8-60.4c2.5-7.5,6.2-14.7,10.9-21c-11,6.8-22,13.7-32.8,20.7c-3.7,2.4-7.5,4.9-11.2,7.4
			c-6.7,6.8-12.6,14.3-18.7,21.5c-13.8,16.3-28,32.7-43.9,45.8c-3,2.4-5.4,4.4-10,6.9c-0.9,0.5-2.1,0.3-2.1,0.3
			c-1.1-0.8-3.2,1.8,1.6-7.3c14.5-27.7,37.9-54.9,66.6-72.1c8.4-5,16.9-10,26.3-12.6c3.7-2.3,7.3-4.6,11-6.8
			c-22.2,4.6-47.2-1.3-71.1-8.3c-6.2-1.8-12.4-3.6-18.1-6.6c-3.1-1.6,1.6-3.8,1.6-3.8c6.3-2.7,13.5-3,20.6-3
			c27.5,0.1,53.2,16.8,80,13.7c1.3-0.8,2.6-1.6,4-2.4c0.4-0.8,0.7-1.2,0.7-0.7l0.1,0.2c9.9-6,19.8-11.9,29.6-17.9
			c-16.2,5.2-34.1,3.7-50.7-0.6c-0.3-0.1-0.3-0.1-0.6-0.2c-14.2-4-27.4-10.8-40.6-17.1c-2-0.9-6-1.5-3.2-3.7c1.4-1.5,2-1.2,2.9-1.5
			c3.1-0.8,6.4-1,9.6-1c17.9,0.2,35.5,2.7,53.9,6.5c15.1,3.1,30,9.4,45.6,7.1c9.3-5.9,18.4-12,27.3-18.3c-2.1,0.5-8.6,2-14,2
			c-16.8,0.1-33.2-6.3-48.6-12.1c-8.7-3.3-17.5-6.5-26-10.2c-2.6-1.1-7.3-0.9-5-4.3l1.1-1.2c8.7-4.4,19.8-2.7,30.5-0.7
			c20.8,3.8,40.6,12.1,61.4,15c5.4,0.8,10.9,1,16.2-0.1c10.1-7.8,19.8-16,29-24.8c0.2-0.1,0.3-0.3,0.5-0.4
			c-12.3,5.4-28,4.5-41.5,1.8c-18.3-3.7-36-9.3-54.1-13.7c-1.7-0.4-3.9-0.9-3.9-0.9c-1.6-1.3-0.3-1.8,0.7-2.1
			c0.9-0.4,1.1-0.4,1.1-0.5c9-1.3,18.1-1.7,27.3-1.7c19.5,0.1,38.9,2,58,6C1325.6-140.8,1332.6-139.3,1339.6-139.9z M1233.4-146.6
			L1233.4-146.6L1233.4-146.6z"/>
	</g>
	<g transform="matrix(1,0,0,1,-34.1529,-10.9855)">
		<path class="st8" d="M276.6,224h0.1l0.1,0.1l0.1,0.1l0.1,0.1l0.1,0.1l0.1,0.1l0.1,0.1v0.1v0.1v0.1v0.1v0.1l-0.1,0.1l-0.1,0.2
			l-0.1,0.2l-0.1,0.2l-0.1,0.2l-0.1,0.2l-0.1,0.2l-0.1,0.2l-0.1,0.2l-0.3,0.4l-0.3,0.4l-0.3,0.4l-0.3,0.4L275,229l-0.3,0.4l-0.3,0.4
			l-0.3,0.4l-0.3,0.4l-0.3,0.4l-0.3,0.4l-0.3,0.4l-0.3,0.4l-0.3,0.4l-0.6,0.7l-1.1,1.5l-0.6,0.7l-0.3,0.4l-0.3,0.4l-0.3,0.4
			l-0.3,0.4l-0.3,0.4l-0.3,0.4l-0.5,0.7l-0.5,0.7l-0.5,0.7l-0.5,0.7l-0.5,0.7l-0.5,0.7l-0.5,0.7l-0.5,0.7l-0.5,0.7l-0.5,0.7
			l-0.5,0.7l-0.5,0.7l-0.5,0.7l-0.5,0.7l-0.5,0.7l-0.5,0.7l-1.1,1.4l-1.1,1.4l-1.1,1.4L256,254l-1.1,1.4l-1.1,1.4l-1.1,1.4l-1.1,1.4
			l-0.5,0.7l-0.5,0.7l-0.5,0.7l-0.5,0.7l-0.5,0.7l-0.5,0.7l-0.5,0.7l-0.5,0.7l-0.5,0.7l-0.5,0.7l-0.5,0.7l-0.5,0.7l-0.5,0.7
			l-0.5,0.7l-0.5,0.7l-0.5,0.7l-0.5,0.7l-0.5,0.7l-0.5,0.7l-0.5,0.7l-0.5,0.7l-0.5,0.7l-0.5,0.7l-0.2,0.4l-0.2,0.4l-0.2,0.4
			l-0.2,0.4l-0.2,0.4l-0.2,0.4l-0.2,0.4l-0.2,0.4l-0.2,0.4l-0.2,0.4l-0.2,0.4l-0.2,0.4l-0.2,0.4l-0.2,0.4l-0.2,0.4l-0.2,0.4
			l-0.2,0.4l-0.2,0.4l-0.1,0.1l-0.1,0.1l-0.1,0.1l-0.1,0.1H236h-0.1h-0.1h-0.1h-0.1l-0.1-0.1l-0.1-0.1l-0.1-0.1l-0.1-0.1l-0.1-0.1
			l-0.1-0.1v-0.1v-0.1v-0.1v-0.1v-0.1l0.1-0.1l0.2-0.4l0.2-0.4l0.2-0.4l0.2-0.4l0.2-0.4l0.2-0.4l0.2-0.4l0.2-0.4l0.2-0.4l0.2-0.4
			l0.2-0.4l0.2-0.4l0.2-0.4l0.2-0.4l0.2-0.4l0.2-0.4l0.2-0.4l0.2-0.4l0.5-0.7l0.5-0.7l0.5-0.7l0.5-0.7l0.5-0.7l0.5-0.7l0.5-0.7
			l0.5-0.7l0.5-0.7l0.5-0.7l0.5-0.7l0.5-0.7l0.5-0.7l0.5-0.7l0.5-0.7l0.5-0.7l0.5-0.7l0.5-0.7l0.5-0.7l0.5-0.7l0.5-0.7l0.5-0.7
			l0.5-0.7l1.1-1.4l1.1-1.4l1.1-1.4l1.1-1.4l1.1-1.4l1.1-1.4l1.1-1.4l1.1-1.4l0.5-0.7l0.5-0.7l0.5-0.7l0.5-0.7l0.5-0.7l0.5-0.7
			l0.5-0.7l0.5-0.7l0.5-0.7l0.5-0.7l0.5-0.7l0.5-0.7l0.5-0.7l0.5-0.7l0.5-0.7l0.5-0.7l0.3-0.4l0.3-0.4l0.3-0.4l0.3-0.4l0.3-0.4
			l0.3-0.4l0.6-0.7l1.1-1.5l0.6-0.7l0.3-0.4l0.3-0.4l0.3-0.4l0.3-0.4l0.3-0.4l0.3-0.4l0.3-0.4l0.3-0.4l0.3-0.4l0.3-0.4l0.3-0.4
			l0.3-0.4l0.2-0.4l0.2-0.4l0.1-0.2l0.1-0.2l0.1-0.2l0.1-0.2l0.1-0.2l0.1-0.2l0.1-0.2l0.1-0.2l0.1-0.1l0.1-0.1l0.1-0.1l0.1-0.1h0.1
			h0.1h0.1L276.6,224z"/>
	</g>
	<g transform="matrix(1,0,0,1,-16.1956,-28.3715)">
		<g transform="matrix(1.35967,0,0,1.35967,-62.824,-77.5176)">
			<g transform="matrix(1,0,0,1,332.103,218.663)">
			</g>
			<g transform="matrix(-1,0,0,1,493.387,64.031)">
				<polygon class="st9" points="30.8,254.6 261.8,308.3 261.8,308.3 				"/>
			</g>
			<g transform="matrix(0.73547,0,0,0.73547,225.67,55.5117)">
				<path class="st8" d="M224.8,245.5h0.4h0.4h0.4h0.4l0.9,0.1l0.9,0.1l0.9,0.1h0.4h0.4h0.4h0.4h0.4h0.4h0.4h0.4h0.4h0.4h0.4h0.2
					h0.2h0.2h0.2h0.2h0.2h0.2h0.2h0.2h0.2h0.2h0.2h0.2h0.2h0.2h0.2h0.2h0.2h0.2h0.2h0.2h0.2h0.1h0.1h0.1h0.1h0.1h0.1h0.1h0.1h0.1
					h0.1h0.1h0.1v0.1v0.1v0.1v0.1v0.1v0.1v0.1v0.1v0.1v0.1v0.1v0.1v0.1v0.1v0.1v0.1v0.1v0.1v0.1v0.1v0.1H239h-0.1h-0.1h-0.1h-0.1
					h-0.1h-0.1h-0.1h-0.1H238h-0.2h-0.2h-0.2h-0.2H237h-0.2h-0.2h-0.2h-0.2H236h-0.2h-0.2h-0.2h-0.2H235h-0.2h-0.2h-0.2h-0.2H234
					h-0.2h-0.4H233h-0.4h-0.4h-0.4h-0.4H231h-0.4h-0.4h-0.4h-0.4l-0.9-0.1l-0.9-0.1l-0.9-0.1h-0.4h-0.4h-0.4h-0.4H225h-0.1h-0.1
					h-0.1h-0.1h-0.1h-0.1h-0.1h-0.1h-0.1v-0.1v-0.1v-0.1v-0.1v-0.1V247v-0.1v-0.1v-0.1v-0.1v-0.1v-0.1v-0.1v-0.1v-0.1V246v-0.1v-0.1
					v-0.1v-0.1v-0.1h0.1h0.1h0.1h0.1h0.1h0.1H224.8h0.1h0.1H224.8L224.8,245.5z"/>
				<path class="st8" d="M226.6,214.4L226.6,214.4h0.2h0.1h0.1h0.1h0.1l0.1,0.1l0.1,0.1l0.1,0.1l0.1,0.1l0.1,0.1l0.1,0.1l0.1,0.1
					l0.1,0.1l0.1,0.1l0.1,0.1l0.1,0.1l0.1,0.1l0.1,0.1l0.1,0.1l0.1,0.1l0.1,0.1l0.1,0.1l0.1,0.1l0.2,0.3l0.2,0.3l0.2,0.3l0.2,0.3
					l0.2,0.3l0.2,0.3l0.2,0.3l0.2,0.3l0.2,0.3l0.2,0.3l0.2,0.3l0.5,0.5l0.5,0.5l0.5,0.5l0.2,0.3l0.3,0.3l0.2,0.3l0.2,0.3l0.2,0.3
					l0.2,0.3l0.2,0.3l0.2,0.3l0.3,0.3l0.3,0.3l0.3,0.3l0.3,0.3l0.3,0.3l0.3,0.3l0.3,0.3l0.3,0.3l0.3,0.3l0.3,0.3l0.5,0.7l0.5,0.7
					l0.5,0.7l0.5,0.7l0.5,0.7l0.5,0.7l0.3,0.3l0.3,0.3l0.3,0.3l0.3,0.3l0.3,0.3l0.3,0.3l0.3,0.3l0.3,0.3l0.3,0.3l0.3,0.3l0.1,0.1
					v0.1v0.1v0.1v0.1v0.1v0.1v0.1v0.1v0.1v0.1v0.1v0.1v0.1v0.1l-0.1,0.1l-0.1,0.1l-0.1,0.1h-0.1H243h-0.1h-0.1h-0.1h-0.1h-0.1h-0.1
					h-0.1h-0.1h-0.1H242h-0.1h-0.1l-0.1-0.1l-0.1-0.1l-0.1-0.1l-0.3-0.3l-0.3-0.3l-0.3-0.3l-0.3-0.3l-0.3-0.3l-0.3-0.3l0.3-0.3
					l-0.3-0.3l-0.3-0.3l-0.3-0.3l-0.5-0.7l-0.5-0.7l-0.5-0.7l-0.5-0.7l-0.5-0.7L236,228l-0.3-0.3l-0.3-0.3l-0.3-0.3l-0.3-0.3
					l-0.3-0.3l-0.3-0.3l-0.3-0.3l-0.3-0.3l-0.3-0.3L233,225l-0.2-0.3l-0.2-0.3l-0.2-0.3l-0.2-0.3l-0.2-0.3l-0.2-0.3l-0.2-0.3
					l-0.2-0.3l-0.5-0.5l-0.5-0.5l-0.5-0.5l-0.3-0.3l-0.3-0.3l-0.2-0.3l-0.2-0.3l-0.2-0.3l-0.2-0.3l-0.2-0.3l-0.2-0.3l-0.2-0.3
					l-0.2-0.3l-0.2-0.3l-0.1-0.1l-0.1-0.1l-0.1-0.1l-0.1-0.1l-0.1-0.1l-0.1-0.1l-0.1-0.2l-0.1-0.2l-0.1-0.2l-0.1-0.2l-0.1-0.2
					l-0.1-0.2l-0.1-0.2l-0.1-0.2v-0.1v-0.1v-0.1v-0.1v-0.1V215v-0.1v-0.1v-0.1v-0.1v-0.1v-0.1v-0.1l0.1-0.1l0.1-0.1l0.1-0.1l0.1-0.1
					h0.1h0.1h0.1h0.1h0.1h0.1L226.6,214.4L226.6,214.4z"/>
				<path class="st8" d="M252.3,214.5L252.3,214.5h0.1h0.1h0.1h0.1h0.1h0.1h0.1h0.1l0,0l0,0l0,0l0,0v0.1v0.1v0.1v0.1v0.1v0.1v0.1
					v0.1v0.3v0.3v0.3v0.3l0.1,0.7l0.1,0.6l0.1,0.6l0.1,0.7l0.1,0.6l0.1,0.7l0.2,1.3l0.2,1.3l0.1,0.7l0.1,0.7l0.1,0.7l0.1,0.7v0.1
					v0.1v0.1v0.1v0.1v0.1v0.1v0.1v0.1v0.1v0.1v0.1l0,0l0,0l0,0l0,0h-0.1h-0.1h-0.1h-0.1H254h-0.1h-0.1h-0.1h-0.1h-0.1h-0.1h-0.1
					h-0.1h-0.1H253h-0.1h-0.1h-0.1h-0.1h-0.1l0,0l0,0l0,0l0,0l0,0v-0.1v-0.1v-0.1v-0.1v-0.1v-0.1v-0.1l-0.1-0.7l-0.1-0.6l-0.1-0.7
					l-0.1-0.7l-0.2-1.3l-0.2-1.3l-0.1-0.7l-0.1-0.7l-0.1-0.7l-0.1-0.7l-0.1-0.7l-0.1-0.7v-0.3v-0.3v-0.3v-0.3v-0.1v-0.1v-0.1v-0.1
					v-0.1V215v-0.1v-0.1v-0.1v-0.1v-0.1v-0.1l0,0l0,0l0,0l0,0h0.1h0.1h0.1h0.1h0.1h0.1h0.1h0.1h0.1L252.3,214.5L252.3,214.5z"/>
				<g transform="matrix(0.388934,0.0596116,-0.0551763,0.399587,31.7645,219.809)">
					<g transform="matrix(0.984303,0.176485,-0.176485,0.984303,329.354,81.9084)">
						<path class="st10" d="M359.7-75.9c0,0-15-47-15.8-50.5c-3.2-13.6-6.5-25.5-14.9-28.6c-4.7-1.8-10.5-4.3-17-4.6
							c-3.5-0.2-17.1,7.8-25.5,12.3c-6.8,3.7-5.3,10.7-2.3,17.2l16.2,59.4C309.5-59.7,355-65.5,359.7-75.9"/>
					</g>
					<g transform="matrix(-1.07473,0.101769,0.0999794,1.09397,362.822,-107.818)">
						<path class="st11" d="M-245.9,443c-0.7,3.8,1,9,2.1,12.7c0.7,2.6,0.3,5.5,1.3,7.9c1.5,3.4,4.5,0.2,5.4-1.8
							c1.3-2.8,0.4-7.3,0-10.2c-0.5-3.9,0.7-8.7-0.9-12.5c-1.6-3.8-5.7-2.3-6.9,1.1"/>
					</g>
					<g transform="matrix(-1.07473,0.101769,0.0890757,0.974664,417.614,-62.6828)">
						<path class="st11" d="M-258.8,446.9c-0.7,3.8,1,9,2.1,12.7c0.7,2.6,0.3,5.5,1.3,7.9c1.5,3.4,4.5,0.2,5.4-1.8
							c1.3-2.8,0.4-7.3,0-10.2c-0.5-3.9,0.7-8.7-0.9-12.5c-1.6-3.8-5.7-2.3-6.9,1.1"/>
					</g>
					<g transform="matrix(3.06107,-0.778916,0.625556,2.54519,2.16818,-120.802)">
						<path class="st8" d="M183,248.7c-0.8,0.7-2.4,1.6-3,1.9c-0.3,0.1-1.2,1.8-0.3,1.9c0.5,0,8.1,0.3,10.2-0.3
							c0.2-0.6,0.2-1.4,0.2-2c0.1-0.9-0.5-1.4-0.5-2.2c-0.1-0.8-0.7,0.1-1.3-0.1c-0.5-0.2-1.2,1.1-1.1,0.4c0.2-1.5-1.5-2.1-2.1-2
							C184.2,246.5,183.8,248.1,183,248.7z"/>
						<g>
							<g>
								<defs>
									<path id="SVGID_5_" d="M183,248.7c-0.8,0.7-2.4,1.6-3,1.9c-0.3,0.1-1.2,1.8-0.3,1.9c0.5,0,8.1,0.3,10.2-0.3
										c0.2-0.6,0.2-1.4,0.2-2c0.1-0.9-0.5-1.4-0.5-2.2c-0.1-0.8-0.7,0.1-1.3-0.1c-0.5-0.2-1.2,1.1-1.1,0.4c0.2-1.5-1.5-2.1-2.1-2
										C184.2,246.5,183.8,248.1,183,248.7z"/>
								</defs>
								<clipPath id="SVGID_6_">
									<use xlink:href="#SVGID_5_"  style="overflow:visible;"/>
								</clipPath>
								<g class="st12">
									<g transform="matrix(1,0,0,1,5.21747,0.0761977)">
										<path class="st13" d="M185.9,249.2L185.9,249.2h0.1h0.1h0.1h0.1h0.1h0.1h0.1h0.1h0.1h0.1h0.1h0.1l0.1,0.1l0.1,0.1h0.1l0,0
											l0.1,0.1l0.1,0.1l0.1,0.1l0.1,0.1l0.1,0.1l0.1,0.1l0.1,0.1l0.1,0.1l0.1,0.1l0.1,0.1l0.1,0.1l0.1,0.1l0,0l0.1,0.1l0.1,0.1
											l0.2,0.2l0.2,0.2l0.2,0.2l0,0l0,0l0,0h0.1h0.1h0.1h0.1h0.1h0.1h0.1h0.1h0.1h0.1h0.1h0.1h0.1l0.2,0.1l0.2,0.1l0.1,0.1
											l0.1,0.3h0.1l0.1,0.2l-0.1,0.1h-0.1l-0.3,0.2h-0.2h-0.2h-0.2h-0.1h-0.1h-0.1H190h-0.1h-0.1h-0.1h-0.1h-0.1h-0.1h-0.1h-0.1
											l-0.1-0.1l0,0l0,0l-0.2-0.1l-0.2-0.1l-0.2-0.1l-0.1-0.1l-0.1-0.1l0,0l-0.1-0.1l-0.1-0.1l-0.1-0.1l-0.1-0.1l-0.1-0.1
											l-0.1-0.1l-0.1-0.1l-0.1-0.1h-0.1h-0.1h-0.1h-0.1l0,0H187h-0.1h-0.1h-0.1h-0.1h-0.1h-0.1h-0.1h-0.1h-0.1H186h-0.1h-0.1
											h-0.1l0,0h-0.1l0,0l0,0l0,0l0,0l0,0l0,0l0,0l0,0l0,0l0,0l0,0l0,0l0,0l0,0l0,0l0,0l0,0l0,0l0,0h-0.1h-0.1l0,0h-0.1h-0.1
											h-0.1H185h-0.1h-0.1h-0.1h-0.1h-0.1l0,0h-0.1l-0.2,0.1l-0.4,0.2l-0.2,0.1h-0.1h-0.1h-0.1h-0.1h-0.1H183l-0.2,0.1l-0.2,0.1
											h-0.1l-0.4,0.1l-0.8,0.3l-0.4,0.2l-0.4,0.2l-0.2,0.1l-0.2,0.1l-0.2,0.1l-0.2,0.1l-0.2,0.1l-0.2,0.1l-0.2,0.1l-0.2,0.1l0,0
											l-0.2,0.1l-0.2,0.1l-0.2,0.1l-0.2,0.1l-0.2,0.1l-0.2,0.1l-0.2,0.1l-0.2,0.1l-0.2,0.1h-0.2h-0.1h-0.1h-0.1h-0.1l-0.2-0.1
											l0.1-0.2h0.1h0.1h0.1h0.1l0.2-0.1l0.2-0.1l0.2-0.1l0.2-0.1l0.2-0.1l0.2-0.1l0.2-0.1l0.2-0.1l0.2-0.1l0.2-0.1l0,0l0.2-0.1
											l0.2-0.1l0.2-0.1l0.2-0.1l0.2-0.1l0.2-0.1l0.2-0.1l0.2-0.1l0.4-0.2l0.4-0.2l0.8-0.4l0.4-0.2l0,0l0.2-0.1l0.2-0.1h0.1h0.1
											h0.1h0.1l0.1-0.1l0.1-0.1l0.2-0.1l0.4-0.2l0.2-0.1h0.1l0,0l0.1-0.1l0.1-0.1l0.1-0.1l0.1-0.1l0.1-0.1l0.1-0.1l0.1-0.1
											l0.1-0.1l0.1-0.1l0,0h0.1h0.1h0.1h0.1h0.1h0.1h0.1h0.1h0.1h0.1h0.1l0,0h0.1h0.1h0.1h0.1h0.1h0.1L185.9,249.2L185.9,249.2
											L185.9,249.2z"/>
									</g>
								</g>
							</g>
						</g>
					</g>
					<g transform="matrix(2.4972,-0.501998,0.47995,2.35432,24.6508,-95.7751)">
						<path class="st8" d="M208.1,240.7c0,0-1,3-8.5,4.2c-0.5,0.1-1,0.2-1.5,0.2c-0.3,0.6-0.5,1.3-0.7,1.9c0.4,0.6,1.7,0.7,2.4,0.8
							c2.5,0.3,5.1,0.4,7.4-0.4c2-0.7,4.5,0.4,6.6-0.2c0.2-0.6,0.5-1.3,0.5-2c0.1-0.9-0.2-1.7-0.3-2.5s-1.1-0.7-1.6-0.3
							c-0.4,0.3-0.8,0.7-1.3,0.8c-0.7,0.1-1.4-0.2-2.1-0.2c-0.5,0-0.9,0.2-1.3,0.4c0.5-0.6,1.1-1,1.3-1.8c0-0.1,0.2-0.5,0.1-0.6
							C208.9,240.8,208.3,240.9,208.1,240.7z"/>
						<g>
							<g>
								<defs>
									<path id="SVGID_7_" d="M208.1,240.7c0,0-1,3-8.5,4.2c-0.5,0.1-1,0.2-1.5,0.2c-0.3,0.6-0.5,1.3-0.7,1.9
										c0.4,0.6,1.7,0.7,2.4,0.8c2.5,0.3,5.1,0.4,7.4-0.4c2-0.7,4.5,0.4,6.6-0.2c0.2-0.6,0.5-1.3,0.5-2c0.1-0.9-0.2-1.7-0.3-2.5
										s-1.1-0.7-1.6-0.3c-0.4,0.3-0.8,0.7-1.3,0.8c-0.7,0.1-1.4-0.2-2.1-0.2c-0.5,0-0.9,0.2-1.3,0.4c0.5-0.6,1.1-1,1.3-1.8
										c0-0.1,0.2-0.5,0.1-0.6C208.9,240.8,208.3,240.9,208.1,240.7z"/>
								</defs>
								<clipPath id="SVGID_8_">
									<use xlink:href="#SVGID_7_"  style="overflow:visible;"/>
								</clipPath>
								<g class="st14">
									<path class="st13" d="M209.2,243.8L209.2,243.8h0.2h0.1h0.1h0.1h0.1h0.1h0.1h0.1l0.1,0.1l0.1,0.1l0.1,0.1l0.1,0.1l0,0
										l0.1,0.1l0.1,0.1l0.1,0.1l0.1,0.1l0.1,0.1l0.1,0.1l0.1,0.1l0.1,0.1l0.1,0.1l0.1,0.1l0.1,0.1l0.1,0.1l0,0l0.1,0.1l0.1,0.1
										l0.2,0.2l0.2,0.2l0.2,0.2h0.1h0.1l0,0h0.1h0.1h0.1l0.1,0h0.1h0.1h0.1h0.1h0.1h0.1h0.1h0.1l0.2,0.1l0.2,0.1l0.1,0.1l0.1,0.4
										h0.1l0.1,0.2l-0.2,0.1h-0.1l-0.3,0.3h-0.2h-0.2h-0.2h-0.1h-0.1h-0.1h-0.1H213h-0.1h-0.1l-0.1,0h-0.1h-0.1h-0.1h-0.1
										L212,247l-0.1-0.1l-0.2-0.1l-0.2-0.1l-0.2-0.1l-0.1-0.1l-0.1-0.1l0,0l-0.1-0.1l-0.1-0.1l-0.1-0.1l-0.1-0.1l-0.1-0.1
										l-0.1-0.1l-0.1-0.1l-0.1-0.1h-0.1h-0.1H210h-0.1l0,0h-0.1h-0.1h-0.1h-0.1h-0.1l0,0l0,0l0,0l0,0l0,0l0,0l0,0l0,0l0,0l0,0
										l0,0l0,0l0,0l0,0l0,0l0,0l0,0l0,0l0,0l0,0l0,0l0,0l0,0l0,0l0,0l0,0l0,0l0,0l0,0l0,0l0,0h-0.1h-0.1l0,0h-0.1H209h-0.1h-0.1
										h-0.1h-0.1h-0.1h-0.1h-0.1h-0.1l0,0h-0.1l-0.2,0.1l-0.4,0.2l-0.2,0.1h-0.1h-0.1H207h-0.1h-0.1h-0.1l-0.4,0.1l0,0l-0.4,0.2
										l-0.8,0.3l-0.4,0.2l-0.4,0.2l-0.2,0.1l-0.2,0.1l-0.2,0.1l-0.2,0.1l-0.2,0.1l-0.2,0.1l-0.2,0.1h-0.1h-0.1l-0.2,0.1l-0.2,0.1
										l-0.2,0.1l-0.2,0.1l-0.2,0.1l-0.2,0.1l-0.2,0.1l-0.2,0.1l-0.2,0.1h-0.2h-0.2h-0.2l-0.2-0.1l0.1-0.2h0.2l0.2-0.1l0.2-0.1
										l0.2-0.1l0.2-0.1l0.2-0.1l0.2-0.1l0.2-0.1l0.2-0.1l0.2-0.1l0.2-0.1l0.2-0.1h0.1l0.1-0.1l0.2-0.1l0.2-0.1l0.2-0.1l0.2-0.1
										l0.2-0.1l0.2-0.1l0.2-0.1l0.4-0.2l0.4-0.2l0.8-0.4l0.4-0.2l0,0l0.4-0.2h0.1h0.1h0.1h0.1l0.1-0.1l0.1-0.1l0.2-0.1l0.4-0.2
										l0.2-0.1l0.1-0.1l0,0h0.1l0.1-0.1l0.1-0.1l0.1-0.1l0.1-0.1l0.1-0.1l0.1-0.1l0.1-0.1l0.1-0.1h0.1l0,0h0.1h0.1h0.1h0.1h0.1
										h0.1h0.1h0.1h0.1h0.1l0,0h0.1h0.1h0.1h0.1h0.1h0.1L209.2,243.8L209.2,243.8L209.2,243.8z"/>
								</g>
							</g>
						</g>
					</g>
					<g transform="matrix(1.45147,-0.187151,0.187151,1.45147,-300.223,-126.226)">
						<path class="st15" d="M613.2,331.7L613.2,331.7c0,0-3-38.6-3.9-51.4c-0.9-11,5.3-64,20-52.3c16.9,13.4,25.1,29,18.6,54.6
							c-2.3,9.1-9.8,43.9-12.7,57.7c4.9,9.7,4.4,21.8-0.9,30.1c0,0-15.6,43.7-16.9,45.3c-2.1,2.5-7.7,0.3-7.7,0.3
							C607.7,415,613.1,332.3,613.2,331.7z"/>
					</g>
					<g transform="matrix(1.45147,-0.187151,0.187151,1.45147,-300.223,-126.226)">
						<path class="st16" d="M646.7,331.7L646.7,331.7c0,0-10.6-37.2-14.2-49.6c-3-10.6-7.6-63.7,9.1-55.3
							c19.2,9.7,30.4,23.3,29.1,49.8c-0.4,8.5-0.7,38.3-0.9,54.5c7.3,9.4,9.7,24,6.1,33.4c0,0-12.6,49.7-13.1,51.9
							c-0.4,1.9-8.3,1.7-10.9,0.2L646.7,331.7z"/>
					</g>
					<g transform="matrix(1.45147,-0.187151,0.187151,1.45147,-300.223,-126.226)">
						<path class="st17" d="M657.3,248.5l-0.1,0.1l0,0l0,0L657.3,248.5L657.3,248.5L657.3,248.5L657.3,248.5L657.3,248.5
							L657.3,248.5L657.3,248.5L657.3,248.5L657.3,248.5L657.3,248.5L657.3,248.5v0.1l0,0l0,0l0,0l0,0l0,0l0,0l0,0l0.1,0.1l0.1,0.1
							l0,0l0.1,0.1l0.1,0.1l0.1,0.1l0.1,0.3l0.1,0.2v0.1v0.1l0.1,0.1l0.1,0.1l0.1,0.2l0.1,0.2l0.1,0.2l0.2,0.4l0.1,0.2l0.1,0.2l0,0
							l0.1,0.2l0.1,0.2l0.1,0.1l0.1,0.1l0.1,0.1v0.1v0.1v0.1v0.1v0.1v0.1v0.1v0.1v0.1l0.1,0.7l0.1,0.7l0.1,0.7l0.1,0.7l0.1,0.7
							l0.1,0.7l0.1,0.4l0.1,0.4l0.1,0.4l0.1,0.4l0.1,0.4l0.1,0.4v0.4v0.4v0.4v0.4v0.4v0.4v0.4v0.4v0.4v0.4v0.4v0.4v0.4v0.4v0.6v0.6
							v1.1v1.1v1.1v1.1v0.2v1v1.1v1.1v1.1v1.1v1.1v1.1l-0.1,2.3l-0.1,2.3l-0.1,2.3l-0.1,2.3v1.1v1.1v1.1v1.1v0.1v1v1.1v1.1v1.1v1.1
							v1.1v1.1v0.6v0.6v0.8v0.8v1.6v1.1v0.5v1.6v0.8v0.8v0.8v0.8v0.8v0.8v0.8v0.8v0.4v0.4v0.4v0.4v0.4v0.4v0.4v0.4v0.4v0.4v0.4v0.4
							v0.4v0.3v0.1v0.4v0.4l0.1,0.4l0.1,0.4l0.1,0.4l0.1,0.4l0.1,0.4l0.1,0.4l0.1,0.4l0.1,0.4l0.1,0.4l0.1,0.4l0.1,0.4l0.1,0.4
							l0.1,0.4l0.1,0.4l0.1,0.4l0.1,0.4l0.1,0.4l0.1,0.4l0.1,0.4l0.1,0.4l0.1,0.4l0.1,0.4l0.1,0.4l0.1,0.4l0.3,0.8l0.3,0.8l0.3,0.8
							l0.3,0.8l0.3,0.8l0.3,0.8l0.6,1.6l0.3,0.8l0.3,0.8l0.2,0.7v0.1l0.3,0.8l0.3,0.8l0.3,0.8l0.1,0.4l0.1,0.4l0.1,0.4l0.1,0.4
							l0.1,0.4l0.1,0.4l0.1,0.4l0.1,0.4l0.1,0.4l0.1,0.4l0.1,0.4l0.1,0.4l0.1,0.4l0.1,0.4l0.1,0.4l0.1,0.4l0.1,0.4l0.1,0.4l0.1,0.4
							l0.1,0.4l0.1,0.4l0.1,0.4l0.1,0.4l0.1,0.4l0.1,0.4v0.4v0.4v0.4v0.4v0.4v0.4v0.4v0.4v0.4v0.4v0.4v0.4v0.4v0.7v0.7v0.7v0.7v0.3
							v0.5v0.7v0.7v0.7v0.7v0.7v0.7v0.7l-0.1,0.7l-0.1,0.7l-0.1,0.7l-0.1,0.7l-0.1,0.7l-0.1,0.7l-0.1,0.7l-0.1,0.7l-0.1,0.7
							l-0.1,0.7l-0.1,0.7l-0.1,0.7l-0.1,0.7l-0.1,0.7l-0.1,0.7l-0.1,0.7l-0.1,0.7l-0.1,0.7l-0.1,0.7l-0.1,0.7l-0.1,0.7l-0.1,0.7
							l-0.2,0.7l-0.2,0.7l-0.2,0.7l-0.2,0.7l-0.1,0.4l-0.1,0.3l-0.2,0.7l-0.2,0.7l-0.2,0.7l-0.2,0.7l-0.2,0.7l-0.2,0.7l-0.2,0.7
							l-0.2,0.7l-0.2,0.7l-0.2,0.7l-0.2,0.7l-0.2,0.7l-0.4,1.4l-0.4,1.4l-0.2,0.7l-0.2,0.6l-0.4,1.4l-0.1,0.2l-0.1,0.2l-0.1,0.2v0.2
							v0.2v0.3v0.3v0.3v0.3v0.3v0.3v0.3v0.3v0.3v0.3v0.3v0.3v0.3v0.3v0.3v0.3v0.1v0.3v0.7v0.7v0.7v0.7v0.7v0.7v0.7v1.4v0.7v0.3v0.3
							v0.7v0.6v0.6v0.6v0.3v0.3v0.3v0.3v0.3v0.3v0.3v0.3v0.3v0.2v0.2v0.2l-0.1,0.1l-0.1-0.1V417v-0.2v-0.2v-0.2v-0.3v-0.3v-0.3v-0.3
							v-0.3v-0.3v-0.3V414v-0.6v-0.6v-0.6v-0.7v-0.3v-0.3v-0.7l-0.1-1.4v-0.7v-0.7v-0.7V406v-0.7v-0.7v-0.7v-0.3v-0.1v-0.3v-0.3
							v-0.3v-0.3V402v-0.3v-0.3v-0.3v-0.3v-0.3v-0.3v-0.3v-0.3v-0.3V399v-0.3v-0.3l0.1-0.3l0.1-0.2l0.1-0.2l0.1-0.2l0.4-1.4l0.2-0.6
							l0.2-0.7l0.4-1.4l0.4-1.4l0.2-0.7l0.2-0.7l0.2-0.7l0.2-0.7l0.2-0.7l0.2-0.7l0.2-0.7l0.2-0.7l0.2-0.7l0.2-0.7l0.2-0.7l0.2-0.7
							l0.1-0.3l0.1-0.4l0.2-0.7l0.2-0.7l0.2-0.7l0.1-0.7l0.1-0.7l0.1-0.7l0.1-0.7l0.1-0.7l0.1-0.7l0.1-0.7l0.1-0.7l0.1-0.7l0.1-0.7
							l0.1-0.7l0.1-0.7l0.1-0.7l0.1-0.7l0.1-0.7l0.1-0.7l0.1-0.7l0.1-0.7l0.1-0.7l0.1-0.7l0.1-0.7l0.1-0.7v-0.7V364v-0.7v-0.7v-0.7
							v-0.7v-0.7v-0.7v-0.5V359v-0.7v-0.7v-0.7v-0.7v-0.4v-0.4V355v-0.4v-0.4v-0.4v-0.4V353v-0.4v-0.4v-0.4v-0.4V351l-0.1-0.4
							l-0.1-0.4l-0.1-0.4l-0.1-0.4l-0.1-0.4l-0.1-0.4l-0.1-0.4l-0.1-0.4l-0.1-0.4l-0.1-0.4l-0.1-0.4l-0.1-0.4l-0.1-0.4l-0.1-0.4
							l-0.1-0.4l-0.1-0.4l-0.1-0.4l-0.1-0.4l-0.1-0.4l-0.1-0.4l-0.1-0.4L666,343l-0.1-0.4l-0.1-0.4l-0.1-0.4l-0.3-0.8l-0.3-0.8
							l-0.3-0.8v-0.1l-0.2-0.7l-0.3-0.8L664,337l-0.6-1.6l-0.3-0.8l-0.3-0.8l-0.3-0.8l-0.3-0.8l-0.3-0.8l-0.3-0.8l-0.1-0.4l-0.1-0.4
							l-0.1-0.4l-0.1-0.4l-0.1-0.4l-0.1-0.4l-0.1-0.4l-0.1-0.4l-0.1-0.4l-0.1-0.4l-0.1-0.4l-0.1-0.4l-0.1-0.4l-0.1-0.4l-0.1-0.4
							l-0.1-0.4l-0.1-0.4l-0.1-0.4l-0.1-0.4l-0.1-0.4l-0.1-0.4l-0.1-0.4l-0.1-0.4l-0.1-0.4l-0.1-0.4v-0.4v-0.1v-0.3v-0.4V319v-0.4
							v-0.4v-0.4v-0.4V317v-0.4v-0.4v-0.4v-0.4V315v-0.4v-0.8V313v-0.8v-0.8v-0.8v-0.8V309v-0.8v-1.6v-0.5V305v-1.6v-0.8v-0.8v-0.6
							v-0.6v-1.1v-1.1v-1.1v-1.1v-1.1V294v-1v-0.1l0.1-1.1l0.1-1.1l0.1-1.1l0.1-1.1l0.1-2.3l0.1-2.3l0.1-2.3l0.1-2.3l0.1-1.1
							l0.1-1.1l0.1-1.1l0.1-1.1l0.1-1.1v-1.1v-1v-0.2v-1.1v-1.1v-1.1v-1.1v-0.6v-0.6v-0.4v-0.4v-0.4v-0.4v-0.4v-0.4v-0.4v-0.4v-0.4
							v-0.4v-0.4v-0.4v-0.4v-0.4v-0.4v-0.4v-0.4l-0.1-0.4l-0.1-0.4L660,258l-0.1-0.7l-0.1-0.7l-0.1-0.7l-0.1-0.7l-0.1-0.7l-0.1-0.7
							v-0.1v-0.1v-0.1v-0.1v-0.1v-0.1v-0.1V253v-0.1v-0.1v-0.1v-0.1l-0.1-0.2l-0.1-0.2l0,0l-0.1-0.2l-0.1-0.2l-0.2-0.4l-0.1-0.2
							l-0.1-0.2l-0.1-0.2v-0.1v-0.1v-0.1v-0.1l-0.1-0.2l-0.1-0.3l-0.1-0.1l-0.1-0.1l-0.1-0.1l0,0v-0.1v-0.1v-0.1v-0.1v-0.1l0,0l0,0
							l0,0l0,0l0,0l0,0l0,0l0,0l0,0l0,0l0,0l0,0l0,0l0,0l0,0l0,0l0,0l0,0L657.3,248.5z"/>
					</g>
					<g transform="matrix(1.45147,-0.187151,0.187151,1.45147,-300.223,-126.226)">
						<path class="st18" d="M626.1,255.4L626.1,255.4L626.1,255.4L626.1,255.4L626.1,255.4L626.1,255.4L626.1,255.4L626.1,255.4
							L626.1,255.4L626.1,255.4L626.1,255.4L626.1,255.4L626.1,255.4L626.1,255.4L626.1,255.4L626.1,255.4l0.1,0.1l0,0v0.1v0.1
							l0.1,0.1l0.1,0.1l0,0l0.1,0.2l0.2,0.3l0.2,0.3l0.1,0.1l0.1,0.1v0.1v0.1v0.1v0.1v0.2l0,0v0.2v0.2v0.2l0.1,0.4v0.4v0.4l0,0v0.4
							v0.4v0.4v0.4v0.4v0.4v0.4v0.8v0.8v0.4v0.4v0.8v0.8v0.8v0.8v0.8v0.7v0.1v0.4v0.4v0.4v0.4v0.4v0.4v0.4v0.4v0.4v0.4v0.4v0.4v0.4
							v0.4v0.3v0.1l0.1,0.4v0.2v0.2v0.2v0.2v0.1v0.1v0.1v0.1v0.1v0.1v0.3v0.3v0.3v0.3v0.3v0.1v0.1v0.1v0.1v0.1v0.1v0.1v0.1v0.1v0.1
							v0.1v0.1v0.1v0.1v0.1v0.1v0.1v0.1l0,0l0,0l0,0l0,0l0,0l0,0l0,0l0,0l0,0l0,0l0,0l0,0l0,0l0,0l0,0l0,0h0.1h0.1l0,0h0.1l0,0l0,0
							l0,0l0,0l0,0h0.1l0,0h0.1h0.1h0.1h0.1l0,0h0.1h0.1h0.1h0.1h0.3h0.3h0.1h0.2h0.2l0.2,0h0.2h0.2h0.2h0.2h0.3h0.3h0.2l0,0h0.3
							h0.3h0.3l0.6,0.1l1.1,0.1l0.6,0.1h0.3h0.3h0.3h0.3h0.3h0.1h0.2l0.3,0.1l0.3,0.1l0.3,0.1l0.3,0.1l0.3,0.1h0.1h0.1h0.1h0.1h0.1
							l0.1,0.1l0.1,0.1l0.1,0.1l0.1,0.1l0.1,0.1l0.1,0.1l0.1,0.1l0.1,0.1l0.1,0.1v0.1h-0.1l-0.1-0.1L639,282l-0.1-0.1h-0.1h-0.1
							h-0.1h-0.1h-0.1h-0.1h-0.1h-0.1H638h-0.1h-0.1l-0.3-0.1h-0.3h-0.3h-0.3h-0.3h-0.2H636h-0.3h-0.3h-0.3h-0.3h-0.3h-0.6l-1.2-0.1
							h-0.6h-0.3h-0.3h-0.3l0,0h-0.3h-0.3h-0.3h-0.1h-0.1H630h-0.1h-0.1h-0.1h-0.1l-0.1,0h-0.3h-0.3h-0.1h-0.1h-0.1h-0.1l1.5,0h-0.2
							h-0.2l-0.2,0h-0.2h-0.1H629h-0.1h-0.1h-0.1h-0.1h-0.1h-0.1h-0.1h-0.1h-0.1H628h-0.1h-0.1l-0.1-0.1l-0.1-0.1l-0.1-0.1l-0.1-0.1
							l-0.1-0.1l-0.1-0.1l-0.1-0.1l-0.1-0.1l-0.1-0.1l-0.1-0.1l-0.1-0.1l-0.1-0.1l-0.1-0.1l-0.1-0.1l0,0v-0.1v-0.1V280v-0.1v-0.1
							v-0.1v-0.1v-0.1v-0.1v-0.1v-0.1v-0.1v-0.3v-0.3v-0.3v-0.3v-0.2v-0.1v-0.1v-0.1v-0.1v-0.1v-0.1v-0.2v-0.2v-0.2v-0.2l-0.1-0.4
							v-0.1v-0.3v-0.4v-0.4v-0.4v-0.4v-0.4v-0.4v-0.4v-0.4v-0.4v-0.4v-0.4v-0.4v-0.4v-0.4v-0.1v-0.7v-0.8v-0.8v-0.8v-0.8v-0.8v-0.4
							v-0.4v-0.8v-0.8v-0.4v-0.4v-0.4v-0.4v-0.4v-0.4v-0.4l0,0v-0.4v-0.4v-0.4v-0.2v-0.2v-0.2l0,0v-0.2l0,0l0,0l0,0l0,0l0,0l0,0l0,0
							v-0.1v-0.1l-0.1-0.3l-0.1-0.4l-0.1-0.2l0,0v-0.2v-0.2v-0.1v-0.1v-0.1V256v-0.1v-0.1l0,0l0,0l0,0l0,0l0,0l0,0l0,0l0,0l0,0l0,0
							l0,0l0,0l0,0l0,0l0,0l0,0l0.1,0.1l0,0L626.1,255.4L626.1,255.4z"/>
					</g>
					<g transform="matrix(1.45147,-0.187151,0.187151,1.45147,-300.223,-126.226)">
						<path class="st18" d="M634,283.9l0.1,0.2l0,0v0.1v0.2v0.1l0,0v0.3v0.3l0,0.3v0.3v0.3v0.3v0.3v0.3v0.3v0.3l-0.1,0.3l-0.1,0.3
							l-0.1,0.3l-0.1,0.3l0,0l-0.1,0.6l-0.1,0.6l-0.1,0.6l-0.1,0.6l-0.1,0.6l-0.1,0.3l-0.1,0.3l-0.1,0.3l-0.1,0.3l-0.1,0.3v0.3
							l-0.1,0.8l-0.1,0.8l-0.1,0.8l-0.1,0.8l-0.1,0.8l-0.1,0.8l-0.1,0.8l-0.1,0.8l-0.3,1.5l-0.3,1.5l-0.3,1.5l-0.2,1.3l-0.1,0.3
							l-0.3,1.5l-0.3,1.5l-0.3,1.5l-0.3,1.5l-0.1,0.8l-0.1,0.8l-0.1,0.8l-0.1,0.8L629,316l-0.1,0.8v0.3l-0.1,0.5l-0.1,0.8L628,319
							l-0.1,0.7l-0.1,0.7l-0.1,0.7l-0.1,0.7l-0.1,0.7l0,0l-0.1,0.7l-0.1,0.7l-0.1,0.7l-0.1,0.7L627,326l-0.1,0.7l-0.1,0.7v0.3v0.5
							v0.7v0.7v0.7v0.7v0.7v0.7v0.7v0.7v0.7v0.7v0.7v0.7v1.4v1.4v1.4l-0.1,2.9v1.4v0.2v1.2v1.4v0.7v0.7v0.7v0.7v0.7v0.7v0.7v0.7v0.7
							v0.7l-0.1,0.7l-0.1,0.7l-0.1,0.7l-0.1,0.7l-0.1,0.7l-0.1,0.7l-0.1,0.7l-0.1,0.7l-0.1,0.7l-0.1,0.7l-0.1,0.7l-0.1,0.7l-0.1,0.5
							l-0.1,0.5l-0.1,0.5l-0.1,0.5l-0.1,0.5l-0.1,0.5l-0.1,0.4v0.2l-0.1,0.5l-0.1,0.5l-0.1,0.5l-0.1,0.5l-0.1,0.5l-0.1,0.5l-0.1,0.5
							l-0.2,0.5l-0.2,0.5l-0.2,0.5l-0.2,0.5l-0.2,0.5l-0.2,0.5l-0.2,0.5l-0.2,0.5l-0.2,0.5l-0.2,0.5l-0.3,1l-0.3,1l-0.3,1l-0.3,1
							l-0.2,0.5l-0.2,0.5l-0.2,0.5l-0.2,0.5l-0.2,0.5l-0.2,0.5l-0.1,0.5l-0.1,0.5l-0.1,0.5l-0.1,0.5l-0.1,0.5l-0.1,0.5l-0.1,0.5
							l-0.1,0.5v0.2l-0.1,0.4l-0.1,0.5l-0.1,0.5l-0.1,0.5l-0.1,0.5l-0.1,0.5l-0.1,0.5l-0.1,0.5L618,391l-0.1,0.5l-0.1,0.5l-0.1,0.6
							l-0.1,0.6l-0.1,0.6l-0.1,0.6l-0.1,0.6l-0.1,0.6l-0.1,0.6l-0.1,0.6l-0.1,0.6l-0.1,0.6l-0.1,0.6l-0.1,0.6l-0.1,0.6l-0.1,0.6
							l-0.1,0.6l-0.1,0.6l-0.1,0.5l0,0l-0.1,0.6l-0.1,0.6l-0.1,0.5l-0.1,0.5l-0.1,0.5l-0.1,0.5l-0.1,0.5v0.5v0.5v0.5v0.5v0.5v0.1
							v0.5v0.5v0.5v0.5v0.5v0.5v0.5v0.5v0.5v0.5l-0.2,0.2l-0.2-0.2v-0.5v-0.5v-0.5v-0.5v-0.5v-0.5v-0.5v-0.5v-0.5v-0.5v-0.1v-0.5
							v-0.5v-0.5v-0.5v-0.5v-0.5v-0.5v-0.6v-0.6V403v-0.6l0.1-0.6l0,0l0.1-0.6l0.1-0.6l0.1-0.6l0.1-0.6l0.1-0.6l0.1-0.6l0.1-0.6
							l0.1-0.6l0.1-0.6l0.1-0.6l0.1-0.6l0.1-0.6l0.1-0.6l0.1-0.6l0.1-0.6l0.1-0.6l0.1-0.6l0.1-0.6l0.1-0.6l0.1-0.6l0.1-0.6l0.1-0.5
							l0.1-0.5l0.1-0.5l0.1-0.5l0.1-0.5l0.1-0.5l0.1-0.4v-0.2l0.1-0.5l0.1-0.5l0.1-0.5l0.1-0.5l0.1-0.5l0.1-0.5l0.1-0.5l0.1-0.5
							l0.1-0.5l0.1-0.5l0.2-0.5l0.2-0.5l0.2-0.5l0.2-0.5l0.3-1l0.3-1l0.3-1l0.3-1l0.2-0.5l0.2-0.5l0.2-0.5l0.2-0.5l0.2-0.5l0.2-0.5
							l0.2-0.5l0.2-0.5l0.1-0.5l0.1-0.5l0.1-0.5l0.1-0.5l0.1-0.5l0.1-0.5l0.1-0.5l0.1-0.5l0.1-0.5v-0.2l0.1-0.4l0.1-0.5l0.1-0.5
							l0.1-0.5l0.1-0.5l0.1-0.5l0.1-0.5l0.1-0.7l0.1-0.7l0.1-0.7l0.1-0.7l0.1-0.7l0.1-0.7l0.1-0.7l0.1-0.7l0.1-0.7l0.1-0.7v-0.7
							v-0.7v-0.7v-0.7V352v-0.7v-0.7v-0.7v-0.7v-0.7v-0.7v-0.7v-1.4v-1.2v-0.2v-1.4V340v-1.5V337v-1.5v-0.7v-0.7v-0.7v-0.7V332v-0.7
							v-0.7v-0.7v-0.7v-0.7v-0.7v-0.7v-0.5v-0.3l0.1-0.7l0.1-0.7l0.1-0.7l0.1-0.7l0.1-0.7l0.1-0.7l0.1-0.7l0,0l0.1-0.7l0.1-0.7
							l0.1-0.7l0.1-0.7l0.1-0.7l0.1-0.7l0.1-0.8l0.1-0.5v-0.3l0.1-0.8l0.1-0.8l0.1-0.8l0.2-0.8l0.2-0.8l0.2-0.8l0.3-1.5l0.3-1.5
							l0.3-1.5l0.3-1.5l0.1-0.3l0.3-1.3l0.3-1.5l0.3-1.5l0.3-1.5l0.2-0.8l0.2-0.8l0.2-0.8l0.1-0.8l0.1-0.8l0.1-0.8l0.1-0.8l0.1-0.8
							l0.1-0.3l0.1-0.3l0.1-0.3l0.1-0.3l0.1-0.3l0.1-0.3l0.1-0.6l0.1-0.6l0.2-0.6l0.2-0.6l0.1-0.6l0,0l0.1-0.3l0.1-0.3l0.1-0.3
							l0.1-0.3l0.1-0.3l0.1-0.3l0.1-0.3l0.1-0.3l0.1-0.3v-0.3v-0.3v-0.3v-0.3v-0.3l0,0v-0.1V283v-0.1l0,0l0.1-0.2h0.6V283.9z"/>
					</g>
					<g transform="matrix(1.45147,-0.187151,0.187151,1.45147,-300.223,-126.226)">
						<path class="st18" d="M626.5,281.4h0.4h0.4l0,0h0.4h0.4h0.4h0.4l0.8,0h0.8h0.5h0.3l0.8,0.1l0,0h0.4h0.4h0.1l0.3,0.1h0.2
							l0.2,0.1l0.1,0.1l-0.1,0.1l-0.2,0.1h-0.2l-0.3,0.1h-0.1h-0.4h-0.4l0,0h-0.8H631h-0.5h-0.8l-0.8,0h-0.4h-0.4h-0.4h-0.4l0,0
							h-0.4h-0.4h-0.4h-0.4h-0.4h-0.1h-0.4h-0.4h-0.2H624h-0.2h-0.2h-0.1h-0.1h-0.2H623h-0.2l0,0h-0.2h-0.2h-0.2H622h-0.1h-0.1h-0.2
							h-0.2h-0.2H621h-0.2l-0.3-0.2l0.2-0.3l0.2-0.1l0.2-0.1l0.2-0.1l0.2-0.1l0.2-0.1h0.1h0.1h0.2h0.2h0.2h0.2l0,0h0.2h0.2h0.2h0.1
							h0.1h0.2h0.2h0.2h0.2h0.4h0.4h0.1h0.4h0.4L626.5,281.4z"/>
					</g>
					<g transform="matrix(2.22817,-0.562221,0.552335,2.26805,-58.5615,-364.675)">
						<path class="st11" d="M212.4,223.3L212.4,223.3c0.1-1.2,0.5-2.8,0.5-2.8c0.2-0.4,0.4-1,0.5-1c0.3-0.9,0.5-0.6,0.5-0.6
							c1.1,0.1,0.6,2,1.3,4.3c0.1,0.4,0.4,0.9,0.6,1.4c0.4,0.2,0.7,0.5,1,0.7c0.2,0.1,1.5,9.8,0.2,8.1c-2.5-3.1-6.5-3.9-7.5-4
							c-1.6-0.1-3.1,0-4.7,0.1c-1.3,0.1-5.2,1-5.1,0.7c0.1-0.4,0.5-0.6,0.9-0.8c1.2-0.6,2.5-1.1,3.9-1.5c0.5-0.1,0.9-0.2,1.4-0.3
							c0.2-0.1,0.7-0.2,0.7-0.2s-0.5,0-0.7,0c-0.5,0-0.9,0.1-1.4,0.1c-1.4,0-5.3,0.7-5.8,0.6c-0.2,0-0.6,0-0.5-0.3
							c0.1-0.4,2.9-1.2,3.6-1.4c1.6-0.3,3.3-0.7,3.8-0.8c0.1,0,0.4-0.1,0.5-0.1c0-0.1-0.4-0.1-0.4-0.1c-0.4-0.1-7.7-0.2-7.5-0.4
							c0.3-0.5,1.1-0.6,1.7-0.8c1.5-0.4,3.2-0.3,4.8-0.4c0.5,0,1.1,0,1.6,0c0.1,0,0.6,0,0.6,0c0-0.1-0.3,0-0.4,0
							c-0.3-0.1-0.7,0-1.1-0.1c-1.2-0.3-2.6-0.3-3.9-0.4c-0.5,0-1.9,0-1.9-0.2c0-0.7,5.2-0.7,6.2-0.6
							C207.9,222.5,210.1,222.8,212.4,223.3z"/>
					</g>
					<g transform="matrix(1.18069,0.450261,-0.559273,1.49895,-95.8601,-386.112)">
						<path class="st11" d="M645.1,59.9c-5.6,11.8-7,38-7,38s-6.5,0.4-14.6-0.2c-21.5-1.5-37.3-3.8-37.8,0.8
							c-0.6,5.9,68.9,25.6,72.6,11.2c4.7-18.3,11.3-38.4,5.5-46.6C661.1,59.2,645.1,59.9,645.1,59.9z"/>
					</g>
					<g transform="matrix(1.04767,-0.264352,0.259703,1.06642,115.06,-64.3055)">
						<path class="st19" d="M434.5,224.9c0,0,29.3-29.9,27.4-34.1c-9.2-20.1-1.3-28.8-1.4-28.8c-9.8-0.5-13.5,3.6-20.6,9.9
							c-12.8,11.6-24.4,28.7-24.2,28.8C420.7,210.2,434.5,224.9,434.5,224.9z"/>
					</g>
					<g transform="matrix(-2.28574,0.216442,0.212635,2.32665,479.867,-453.193)">
						<path class="st11" d="M-114.7,199.2L-114.7,199.2c0.1-1.2,0.5-2.8,0.5-2.8c0.2-0.4,0.4-1,0.5-1c0.3-0.9,0.5-0.6,0.5-0.6
							c1.1,0.1,0.6,2,1.3,4.3c0.1,0.4,0.4,0.9,0.6,1.4c0.4,0.2,0.7,0.5,1,0.7c0.2,0.1,1.5,9.8,0.2,8.1c-2.5-3.1-6.5-3.9-7.5-4
							c-1.6-0.1-3.1,0-4.7,0.1c-1.3,0.1-5.2,1-5.1,0.7c0.1-0.4,0.5-0.6,0.9-0.8c1.2-0.6,2.5-1.1,3.9-1.5c0.5-0.1,0.9-0.2,1.4-0.3
							c0.2-0.1,0.7-0.2,0.7-0.2s-0.5,0-0.7,0c-0.5,0-0.9,0.1-1.4,0.1c-1.4,0-5.3,0.7-5.8,0.6c-0.2,0-0.6,0-0.5-0.3
							c0.1-0.4,2.9-1.2,3.6-1.4c1.6-0.3,3.3-0.7,3.8-0.8c0.1,0,0.4-0.1,0.5-0.1c0-0.1-0.4-0.1-0.4-0.1c-0.4-0.1-7.7-0.2-7.5-0.4
							c0.3-0.5,1.1-0.6,1.7-0.8c1.5-0.4,3.2-0.3,4.8-0.4c0.5,0,1.1,0,1.6,0c0.1,0,0.6,0,0.6,0c0-0.1-0.3,0-0.4,0
							c-0.3-0.1-0.7,0-1.1-0.1c-1.2-0.3-2.6-0.3-3.9-0.4c-0.5,0-1.9,0-1.9-0.2c0-0.7,5.2-0.7,6.2-0.6
							C-119.2,198.4-116.9,198.7-114.7,199.2z"/>
					</g>
					<g transform="matrix(-0.969024,0.821094,1.01323,1.22769,508.144,-485.942)">
						<path class="st11" d="M125.6,299.1c-5.6,11.8-1.9,39.5-1.9,39.5s-6.5,0.4-14.6-0.2c-21.5-1.5-37.3-3.8-37.8,0.8
							c-0.6,5.9,68.9,25.6,72.6,11.2c4.7-18.3,11.3-38.4,5.5-46.6C146.6,299.9,125.6,299.1,125.6,299.1z"/>
					</g>
					<g transform="matrix(-2.28574,0.216442,0.212635,2.32665,479.867,-453.193)">
						<path class="st9" d="M-45.3,234.2L-45.3,234.2L-45.3,234.2L-45.3,234.2L-45.3,234.2L-45.3,234.2L-45.3,234.2L-45.3,234.2
							L-45.3,234.2L-45.3,234.2L-45.3,234.2L-45.3,234.2L-45.3,234.2L-45.3,234.2L-45.3,234.2L-45.3,234.2L-45.3,234.2L-45.3,234.2
							L-45.3,234.2L-45.3,234.2L-45.3,234.2L-45.3,234.2L-45.3,234.2L-45.3,234.2L-45.3,234.2L-45.3,234.2L-45.3,234.2L-45.3,234.2
							L-45.3,234.2L-45.3,234.2L-45.3,234.2L-45.3,234.2L-45.3,234.2L-45.3,234.2L-45.3,234.2L-45.3,234.2L-45.3,234.2l-0.2,0.3v0.1
							v0.2v0.1v0.1v0.1v0.1v0.1v0.1v0.1l0,0.1v0.1v0.1v0.1v0.1v0.1v0.1v0.2v0.1v0.1v0.1v0.1l0,0l0,0l0,0l0,0l0,0l0,0l0,0l0,0l0,0
							l0,0l0,0l0,0l0,0l0,0l0,0l0,0l0,0l0,0l0,0v0.1l0,0l0,0l0,0l0,0l0,0l0,0l0,0l0,0l0,0l0,0l0,0l0,0l0,0l0,0l0,0l0,0l0,0l0,0l0,0
							l0,0l0,0l0,0l0,0l0,0l0,0l0,0l0,0l0,0l0,0l0,0l0,0l0,0l0,0l0,0l0,0l0,0l0,0l0,0l0,0l0,0l0,0l0,0l0,0l0,0l0,0l0,0l0,0l0,0l0,0
							l0,0l0,0l0,0l0,0l0,0l0,0l0,0l0,0l0,0l0,0l0,0l0,0l0,0l0,0l0,0l0,0l0,0l0,0l0,0l0,0l0,0l0,0l0,0l0,0l0,0l0,0l0,0l0,0l0,0l0,0
							l0,0l0,0l0,0l0,0l0,0l0,0l0.1,0.1l0.1,0.1l0.1,0.1l0.1,0.1h0.1h0.1h0.1h0.1h0.1h0.1h0.1h0.1h0.1h0.1h0.1l0,0l0,0l0,0l0,0l0,0
							l0,0l0,0l0,0l0,0l0,0l0,0l0,0l0,0l0,0l0,0l0,0l0,0l0,0l0,0l0,0l0,0l0,0l0,0l0,0l0,0h0.1l0.1-0.1l0.1-0.1l0.1-0.1l0.1-0.1
							l0.1-0.1l0,0l0,0l0.1-0.1l0.1-0.1l0.1-0.1l0.1-0.1l0.1-0.1l0.1-0.1l0.1-0.1l0.1-0.1v-0.1v-0.1l0-0.1v-0.1v-0.1v-0.1v-0.1v-0.1
							v-0.1V235v-0.1v-0.1v-0.1v-0.1v-0.1v-0.1v-0.1v-0.1v-0.1V234v-0.1v-0.1v-0.1v-0.1v-0.2v-0.1v-0.1v-0.1V233l0,0l0,0l0,0l0,0
							l0,0l0,0l0,0l0,0l0,0l0,0v-0.1v-0.1l0.1-0.2l0,0l0,0l0,0l0,0l0,0l0,0l0,0l0,0l0,0l0,0l0,0l0,0l0,0l0,0l0,0l0,0l0,0l0,0l0,0
							l0,0l0,0l0,0l0,0l0,0l0,0l0,0l0,0l0,0l0,0l0,0l0,0l0,0l0,0l0,0l0,0l0,0l0,0l0,0l0,0l0,0l0,0l0,0l0,0L-45.3,234.2L-45.3,234.2
							L-45.3,234.2z"/>
					</g>
					<g transform="matrix(0.98598,0.166862,-0.166862,0.98598,259.609,162.039)">
						<path class="st20" d="M345.6-236.5c0,0-1.9,12.7,7.4,12.6c22.2-0.2,16.1-24,16.1-24c5.1-0.5,14.6-0.7,17.8,0
							c6,1.3,11.6,4.6,14.5,10.2c1.2,2.4,1.8,5,2.4,7.6c7.8,34.8,20.4,69,37.2,101.3c0.7,1.4,1.5,3.1,0.7,4.4
							c-0.4,0.6-1.1,1-1.8,1.3c-26.6,12.2-47.5,31.9-77.9,30.3c-1.7-7.6-3.7-15.8-5.8-24.1c-4.8-18.7-17-58.3-19.7-78.1
							C332.3-223.1,345.6-236.5,345.6-236.5z"/>
					</g>
					<g transform="matrix(0.863228,-0.523513,0.636788,0.79258,258.704,3.65751)">
						<path class="st21" d="M334,175.3c2.4,4.8,15.5-5.7,19.9-8.4c4.4-2.8,8.6-6.9,8.9-12.5c0-1.2-0.1-2.4,0.3-3.4
							c0.4-1.1,1.4-1.8,2.3-2.5c5.7-4.6,6.4-13.4,6.1-21.4c-0.1-1.9-0.3-3.8-1.3-5.5c-1.1-2-3-3.4-4.9-4.4c-12.9-7-25.7-2-38.8-8.7
							c-3.8-2-7.3-4.8-11.1-6.8c-3.8-2-8.3-3.2-11.9-1.5c-3.7,1.6-5.8,6.9-3.6,10.8c1.5,2.5,4.2,3.8,6.7,4.8
							c-5.2,1.2-7.8,8-6.4,13.8c1.5,5.8,6,10.5,11,13.3c3.7,2.1,7.9,3.5,11,6.6C327.7,154.8,330.5,168.4,334,175.3z"/>
					</g>
					<g transform="matrix(1,-1.38778e-17,1.38778e-17,1,288.948,46.6296)">
						<path class="st10" d="M363.2-50c12.4-4.2,12.1-16.4,12.1-16.4l-7.6-16.9c-1.6-5.1-8.2-6.7-14.2-3.8c-6,2.8-6.4,10-4.7,15
							l4.5,18.9C354.8-48.2,359.8-48.9,363.2-50z"/>
					</g>
					<g transform="matrix(0.863228,-0.523513,0.636788,0.79258,244.679,30.339)">
						<path class="st10" d="M331.3,158.1c3.5,13.3,23.1,4.9,30.3,1.8c10.7-4.7,34.1-34,23.6-48.3c-10.5-14.3-34.5-11.8-44.2-5.4
							C331.4,112.7,328.9,148.7,331.3,158.1z"/>
					</g>
					<g transform="matrix(0.863228,-0.523513,0.636788,0.79258,290.039,42.3713)">
						<path class="st10" d="M341.7,105.3c-3.4,3.8-4.4,8-2.6,9.3c6.1,4.3,10.4,4.3,13.8,0.4c3.4-3.8,2.7-8-0.4-10.7
							C349.5,101.7,345.1,101.5,341.7,105.3"/>
					</g>
					<g transform="matrix(1.13378,-0.908198,1.08584,1.05243,-332.837,211.452)">
						<path class="st21" d="M590.8,246.2c3.6-2,8.1-2,12.2-1.2c3.7,0.7,7.2,2,10.7,3.3c3.3,1.2,6.8,2.7,9.5,5
							c5.2,4.3,0.9,11.6-2.7,15.6c-1.8,2-1.3,5-4,5.5c-1.2,0.2-2.9-0.6-4-1.2c-1.3-0.7-3.2,7.9-6.4,7.2c-0.4-0.1-1.8-3.8-0.9-8.5
							c0.7-3.4,3.5-6.9,4.2-9c0.3-1,0.7-3-0.1-3.3c-0.8-0.8-2-0.7-3.1-0.5c-1.2,0.2-2.3,0.6-3.5,0.9c-2,0.4-4.1,0.7-6.1,0.7
							c-3.6-0.1-8.2-1.4-9.9-4.8c-0.9-1.8-0.8-3.6,0-5.2c0-0.1,0-0.3,0.1-0.4c0.4-0.6,0.8-1.2,1.3-1.7c0.7-0.9,1.5-1.7,2.3-2.4
							C590.5,245.9,590.8,246,590.8,246.2c-0.2,0.1-0.4,0.2-0.5,0.3l-1.2,1.6c-0.7,0.6-1.2,1.3-1.7,2.1c0,0,0,0.1-0.1,0.1v0.1
							l-0.1,0.1c0-0.1,0.1-0.2,0.2-0.3c0.7-1.4,1.7-2.5,2.8-3.6c-0.8,0.5-1.5,1.1-2.1,1.8c-0.5,0.7-1,1.4-1.3,2.1
							c0,0.2,0.2,0.3,0.3,0.4c0.1-0.2,0.1-0.4,0.2-0.6l1.8-2.3c0.3-0.2,0.6-0.5,0.9-0.7c0.3-0.3,0.6-0.6,0.9-1
							C590.8,246.4,590.9,246.3,590.8,246.2z"/>
					</g>
					<g transform="matrix(-1.07473,0.101769,0.0999794,1.09397,413.164,-111.367)">
						<path class="st19" d="M-256.7,175.1c0,0,11.8-20.6,23.1-35.5c5.9-7.8-6.1-31.6-6.2-31.6c-18.3,3-40.3,41.4-40,41.5
							C-274.9,159-256.7,175.1-256.7,175.1z"/>
					</g>
				</g>
			</g>
		</g>
	</g>
	<g transform="matrix(0.999562,-0.029609,0.0295882,0.99886,-64.4218,-21.0823)">
		<path class="st8" d="M430,110.1L430,110.1h0.2h0.1h0.1h0.1h0.1h0.1l0.1,0.1l0.1,0.1v0.1v0.1v0.1v0.1v0.1v0.1v0.1v0.1v0.1v0.1v0.1
			v0.1v0.1l-0.2,0.5l-0.2,0.5l-0.2,0.5l-0.2,0.5l-0.2,0.5l-0.2,0.5l-0.2,0.5l-0.2,0.5l-0.2,0.5l-0.2,0.5l-0.2,0.5l-0.2,0.5l-0.2,0.5
			l-0.2,0.5l-0.5,1l-0.5,1l-0.5,1l-0.2,0.5l-0.2,0.5l-0.2,0.5l-0.2,0.5l-0.2,0.5l-0.2,0.5l-0.2,0.5l-0.2,0.5l-0.2,0.5l-0.2,0.5
			l-0.2,0.5l-0.2,0.5v0.1v0.1v0.1v0.1l-0.1,0.1l-0.1,0.1h-0.1h-0.1h-0.1h-0.1h-0.1h-0.1h-0.1h-0.1h-0.1H423h-0.1h-0.1h-0.1h-0.1
			h-0.1h-0.1h-0.1l-0.1-0.1l-0.1-0.1v-0.1v-0.1v-0.1v-0.1v-0.1v-0.1v-0.1v-0.1v-0.1V127v-0.1v-0.1v-0.1l0.2-0.5l0.2-0.5l0.2-0.5
			l0.2-0.5l0.2-0.5l0.2-0.5l0.2-0.5l0.2-0.5l0.2-0.5l0.2-0.5l0.2-0.5l0.2-0.5l0.5-1l0.5-1l0.5-1l0.2-0.5l0.2-0.5l0.2-0.5l0.2-0.5
			l0.2-0.5l0.2-0.5l0.2-0.5l0.2-0.5l0.2-0.5l0.2-0.5l0.2-0.5l0.2-0.5l0.2-0.5l0.2-0.5v-0.1v-0.1v-0.1v-0.1l0.1-0.1l0.1-0.1h0.1h0.1
			h0.1h0.1h0.1h0.1h0.1h0.1L430,110.1L430,110.1z"/>
		<path class="st8" d="M440.6,124.1L440.6,124.1h0.1h0.1h0.1h0.1h0.1h0.1h0.1h0.1l0,0l0,0v0.1v0.1v0.1v0.1v0.1v0.1v0.1v0.1v0.1v0.1
			v0.1v0.1v0.1v0.1v0.1v0.1v0.1v0.1v0.1v0.1v0.1l0,0l0,0l-0.4,0.3l-0.4,0.3l-0.4,0.3l-0.4,0.3l-0.4,0.3L439,128l-0.4,0.3l-0.4,0.3
			l-0.4,0.3l-0.4,0.3L437,129l-0.4,0.3l-0.4,0.3l-0.4,0.3l-0.8,0.6l-0.8,0.6l-0.8,0.6l-1.5,1.1l-0.8,0.6l-0.8,0.6l-0.8,0.6l-0.4,0.3
			l-0.4,0.3h-0.1h-0.1h-0.1h-0.1h-0.1h-0.1H428h-0.1h-0.1h-0.1h-0.1h-0.1h-0.1h-0.1h-0.1h-0.1H427h-0.1h-0.1l0,0l0,0v-0.1V135v-0.1
			v-0.1v-0.1v-0.1v-0.1v-0.1v-0.1v-0.1v-0.1V134v-0.1v-0.1v-0.1v-0.1v-0.1v-0.1v-0.1v-0.1v-0.1l0,0l0,0h0.1l0.4-0.3l0.4-0.3l0.8-0.6
			l0.8-0.6l0.8-0.6l1.5-1.1l0.8-0.6l0.8-0.6l0.8-0.6l0.4-0.3l0.4-0.3l0.4-0.3l0.4-0.3l0.4-0.3l0.4-0.3l0.4-0.3l0.4-0.3l0.4-0.3
			l0.4-0.3l0.4-0.3l0.4-0.3l0.4-0.3l0.4-0.3h0.1h0.1h0.1h0.1h0.1h0.1h0.1h0.1h0.1L440.6,124.1L440.6,124.1z"/>
		<g transform="matrix(-0.745259,0,0,0.745259,563.956,52.5105)">
			<g>
				<g transform="matrix(0.960863,-0.691753,0.603881,0.838807,-78.4787,299.077)">
					<path class="st22" d="M311.5,7.8c1.3-0.9,7.4-1.8,9.2-2c5.9-0.5,12.8,2.1,14,7.8c1.5,7-1.5,13.6-11.7,22.6
						c-3.5,3.1-12.7,4.5-13.8,2.4c-0.8-1.6-4.5-15.4-3.8-21C305.4,17.7,306.5,11.1,311.5,7.8z"/>
				</g>
				<g transform="matrix(0.769854,-0.63822,0.63822,0.769854,-11.76,287.542)">
					<path class="st22" d="M312.2,22.5c0.3-3.7,6.4-6.2,10.6-0.9c0.5,0.6-0.8,10.9,0.3,19.1c0,0.2-3.2,0.8-5.5,1.2
						c-1.1,0.2-13.7,2.8-11.4-0.3C313,32.5,311.9,25.2,312.2,22.5z"/>
				</g>
				<path class="st22" d="M255.1,109.1c-2.4,0.6-10,19.7-9.7,21.5c0.8,4.5,0.7,51,2.1,51.5c5.9,2.3,24.7,5.1,24.5,0.7
					c0-1.5,0.5-51.5-0.3-60c-0.4-4.8-4.7-7.5-5.6-8.5C264.4,112.4,256.4,108.8,255.1,109.1z"/>
				<path class="st22" d="M211.5,188c-10.8,1.4-21.5,4.2-32.4,5.2c-13.5,1.1-27.6,2.8-40.9,5.4c-6,1.1-12.3,1.5-18.1,2.6
					c-0.8,0.1-4.4,0.6-4.6,1.5c-0.1,0.5,6.5,1.9,7.3,2.1c4.3,0.8,8.7,0.7,13,1.3c4.3,0.7,8.9,2,13.3,2.1c7.9,0.2,15.8,1.2,23.6-0.9
					c2.4-0.7,4.7-2,7.2-2.6c0.7-0.2,1.7-1.3,2.3-1.1c9.8,2.8,23,1,33.6,1.5c14.5,0.6,30.4,4.2,44.6-0.4c5.1-1.7,13.8-6.9,12.5-13.4
					c-0.5-2.4,0.4-19.1-0.7-19.8C270.8,170.5,219.5,187,211.5,188z"/>
				<g transform="matrix(0.709891,0.581661,-0.517741,0.631879,197.701,-174.256)">
					<path class="st23" d="M247,233.5c-2.2,2,6.6,35.1,1.5,46.3c-4.1,9-17.7,16.8-26.6,19.9c-2.3,0.8-4.1,2.9-4.8,4.3
						c-2.3,4.5-1.2,10.4,4.6,5.4c2.3-2,7.4-2.5,9.9-3.3c9.3-2.6,16.7-6.6,27.2-15.6c3.1-2.7,6.2-8.4,6.8-34.2
						C266,236.6,255.1,225.9,247,233.5z"/>
				</g>
				<g transform="matrix(0.942554,0,0,0.942554,24.0656,12.3125)">
					<path class="st24" d="M229.8,157.6c0,0,3.3-10.6,3.1-14.6c-0.2-2.8,1.1-20.9,6.5-32.8c1.1-2.4,12.1-7,16.2-4.9
						c15.7,8,8.9,42.3,8.4,45c-0.3,1.3,3,7.9,2.4,9.1c-0.8,1.5-1.7,3.4-3.1,4.5c-3,2.4-8.3,2-11.9,2
						C243.7,165.9,234.4,163.2,229.8,157.6z"/>
				</g>
				<g transform="matrix(-1.1616,0,0,1.19116,707.706,-44.2354)">
					<path class="st23" d="M381.5,139.3c0,0,5.7-1.5,7.7,0.1c5.5,4.5,6.5,8.3,4,19.1c-1.6,7.1-11.6,9-14-0.7
						C378,152.5,378.1,143,381.5,139.3z"/>
				</g>
				<g transform="matrix(0.448447,-0.89381,0.89381,0.448447,30.6825,465.821)">
					<path class="st25" d="M340.5,83.5c0,0-34.6-27.2-37.7-28.2c-0.8-0.2-11.3,2.3-15.9,3.4c-10.6,2.5-19.5,0.2-42.2,5.1
						c-2.2,0.5-8.6,0-0.7-4.5c12.6-7.1,48.5-20.4,52-21.9c10.9-4.6,39.9,14.9,49.2,18c9.3,3.1,8.5,13.7,8.2,16.1
						C353.1,75.1,346.2,83.6,340.5,83.5z"/>
				</g>
				<g transform="matrix(0.422685,-0.842464,0.842464,0.422685,52.4797,449.832)">
					<path class="st19" d="M347.4,49.5c0,0-46.6-26.5-57.3-23.9c-2.2,0.5-38.5,13.2-44.2,16.2l3.3,14.6c0,0,29.9-3.7,46.8-9.4
						l28.3,22.3C324.4,69.2,354.5,65.7,347.4,49.5z"/>
					<g>
						<g>
							<defs>
								<path id="SVGID_9_" d="M347.4,49.5c0,0-46.6-26.5-57.3-23.9c-2.2,0.5-38.5,13.2-44.2,16.2l3.3,14.6c0,0,29.9-3.7,46.8-9.4
									l28.3,22.3C324.4,69.2,354.5,65.7,347.4,49.5z"/>
							</defs>
							<clipPath id="SVGID_10_">
								<use xlink:href="#SVGID_9_"  style="overflow:visible;"/>
							</clipPath>
							<g class="st26">
								<path class="st3" d="M346,60.5L346,60.5L346,60.5l-0.2-0.2l-0.1-0.1l-0.1-0.1l-0.1-0.1l-0.1-0.1l-0.1-0.1l-0.1-0.1l-0.1-0.1
									l-0.1-0.1l-0.1-0.1l-0.1-0.1h-0.1l-0.3-0.2l-0.3-0.2l-0.3-0.2l-0.2-0.1l-0.2-0.1l-0.2-0.1l-0.2-0.1l-0.2-0.1l-0.2-0.1
									l-0.2-0.1l-0.2-0.1l-0.2-0.1l-0.2-0.1l-0.4-0.1l-0.3-0.1l-0.3-0.2l-0.3-0.2l-0.2-0.1l-0.2-0.1l-0.3-0.2l-0.3-0.2l-0.3-0.2
									l-0.3-0.2l-0.3-0.2l-0.3-0.2l-0.3-0.2l-0.3-0.2l-0.3-0.2l-0.3-0.2l-0.3-0.2l-0.3-0.2l-0.3-0.2l-0.3-0.2l-0.3-0.2l-0.3-0.2
									l-0.3-0.2l-0.3-0.2l-0.3-0.2l-0.3-0.2l-0.3-0.2l-0.6-0.4l-0.6-0.4l-0.7-0.4l-0.3-0.2l-0.3-0.2l-0.3-0.2l-0.3-0.2l-0.6-0.3
									l-0.6-0.3l-0.6-0.3l-0.6-0.3l-0.6-0.3l-0.5-0.3h-0.1l-0.6-0.3l-0.6-0.3l-0.6-0.3l-0.6-0.3l-0.6-0.3l-0.6-0.3l-0.6-0.3
									l-0.6-0.3l-0.6-0.3l-0.6-0.3l-0.6-0.3l-0.6-0.3l-0.1-0.1l-1.1-0.5l-1.2-0.5l-1.2-0.5l-1.2-0.5l-1.2-0.5l-0.6-0.3l-0.6-0.3
									l-0.2-0.1l-0.2-0.1l-0.4-0.2l-0.4-0.2l-0.4-0.2l-0.4-0.2l-0.4-0.2l-0.4-0.2l-0.4-0.2l-0.4-0.2l-0.4-0.2l-0.7-0.4l-0.7-0.4
									l-0.4-0.2l-0.4-0.2l-0.4-0.2l-0.4-0.2l-0.4-0.2l-0.4-0.2l-0.4-0.2l-0.4-0.2l-0.4-0.2l-0.2-0.1l-0.2-0.1l-0.2-0.1l-0.2-0.1
									l-0.2-0.1l-0.2-0.1l-0.2-0.1l-0.2-0.1l-0.2-0.1l-0.2-0.1l-0.2-0.1l-0.2-0.1l-0.2-0.1l-0.2-0.1l-0.2-0.1l-0.2-0.1l-0.2-0.1
									l-0.2-0.1l-0.2-0.1l-0.2-0.1l-0.2-0.1l-0.2-0.1h-0.2h-0.2h-0.2h-0.2h-0.3H298h-0.3h-0.3h-0.3h-0.3h-0.3h-0.3h-0.3h-0.3h-0.3
									H295h-0.1h-0.1h-0.3h-0.3H294h-0.2h-0.2h-0.2l-0.2,0.1l-0.2,0.1l-0.2,0.1l-0.2,0.1l-0.2,0.1h-0.1h-0.1l-0.2,0.1l-0.3,0.1
									l-0.8,0.2l-1,0.2l-1.2,0.3l-1.4,0.3l-3.2,0.7l-3.6,0.8h-0.1l-4.1,1l-2.2,0.5l-2.2,0.5l-2.3,0.5l-1,0.2l-1.3,0.3L265,42
									l-2.2,0.5l-1.1,0.3l-1.1,0.3l-2.1,0.5l-2.1,0.5l-2,0.5l-1,0.2l-0.2,0.1l-0.7,0.2l-0.9,0.2l-0.9,0.2l-0.8,0.2l-0.8,0.2
									l-0.8,0.2l-0.7,0.2l-0.7,0.2l-0.6,0.2l-0.6,0.2l-0.5,0.2l-0.5,0.1l-0.2,0.1l-0.2,0.1l-0.2,0.1l-0.2,0.1l-0.2,0.1l-0.1,0.1
									l-0.1,0.1h-0.1h-0.1h-0.1h-0.1l0,0l0,0l0,0l0,0l0,0l0,0l0.1,0.3l0,0l0.3-0.1l0,0l0,0l0,0l0,0l0,0l0,0l0,0l0,0l0,0h0.1h0.1
									h0.1l0,0h0.1h0.1h0.1h0.2l0.2-0.1l0.2-0.1l0.2-0.1l0.2-0.1l0.5-0.1l0.5-0.1l0.6-0.1l0.6-0.2L248,47l0.7-0.2l0.8-0.2l0.8-0.2
									l0.8-0.2L252,46l0.9-0.2l0.7-0.2l0.2-0.1l1-0.2l2-0.4l2.1-0.4l2.2-0.5l1.1-0.2l1.1-0.2l2.3-0.5l2.3-0.5l1.3-0.3l1-0.2
									l2.3-0.5l2.2-0.5l2.2-0.5l4.2-0.9h0.1l3.6-0.8l3.2-0.7l1.4-0.3l1.2-0.3l1-0.2l0.8-0.2l0.3-0.1l0.2-0.1h0.2h0.1l0.2-0.1
									l0.2-0.1l0.2-0.1h0.2h0.2h0.2h0.2h0.2h0.2h0.2h0.2h0.1h0.1h0.2h0.2h0.2h0.2h0.2h0.2h0.2h0.2h0.2h0.2h0.2h0.2h0.2h0.2h0.2
									h0.2h0.2l0.2,0.1l0.2,0.1l0.2,0.1l0.2,0.1l0.2,0.1l0.2,0.1l0.2,0.1l0.2,0.1l0.2,0.1l0.2,0.1l0.2,0.1l0.2,0.1l0.2,0.1
									l0.2,0.1l0.2,0.1l0.2,0.1l0.2,0.1l0.2,0.1l0.2,0.1l0.2,0.1l0.2,0.1l0.4,0.2l0.4,0.2l0.4,0.2l0.4,0.2l0.4,0.2l0.4,0.2
									l0.4,0.2l0.4,0.2l0.4,0.2l0.7,0.4l0.7,0.4l0.4,0.2l0.4,0.2l0.4,0.2l0.4,0.2l0.4,0.2l0.4,0.2l0.4,0.2l0.4,0.2l0.4,0.2
									l0.2,0.1l0.2,0.1l0.6,0.3l0.6,0.3l1.2,0.5l1.2,0.5l1.2,2l1.2,0.5l1.1,0.5l0.1,0.1l0.6,0.3l0.6,0.3l0.6,0.3l0.6,0.3l0.6,0.3
									l0.6,0.3l0.6,0.3l0.6,0.3l0.6,0.3l0.6,0.3l0.6,0.3l0.6,0.3h0.1l0.5,0.3l0.6,0.3l0.6,0.3l0.6,0.3l0.6,0.3l0.6,0.3l0.3,0.2
									l0.3,0.2l0.3,0.2l0.3,0.2l0.7,0.4l0.7,0.4L333,55l0.3,0.2l0.3,0.2l0.3,0.2l0.3,0.2l0.3,0.2l0.3,0.2l0.3,0.2l0.3,0.2l0.3,0.2
									L336,57l0.3,0.2l0.3,0.2l0.3,0.1l0.3,0.1l0.3,0.1l0.3,0.1l0.3,0.1l0.3,0.1l0.3,0.1l0.3,0.1l0.4,0.1l0.2,0.1l0.2,0.1l0.4,0.1
									l0.4,0.1l0.4,0.1l0.4,0.1l0.2,0.1l0.2,0.1l0.2,0.1l0.2,0.1l0.2,0.1l0.2,0.1l0.2,0.1l0.2,0.1l0.2,0.1l0.2,0.1l0.4,0.2
									l0.3,0.2l0.3,0.2l0,0h0.1l0,0l0,0h0.1l0,0h0.1l0,0l0.1,0.1l0,0l0.1,0.1l0.1,0.1l0,0l0.1,0.1l0.1,0.1l0.1,0.1l0.1,0.1
									l0.1,0.1l0.1,0.1l0.1,0.1l0.1,0.1l0.1,0.1h0.1h0.1h0.1h0.1l0,0l0,0l0,0h0.1h0.1h0.1h0.1h0.1h0.1l0,0l0,0l0,0l0,0l0,0l0,0
									l0,0l-0.2-0.4l-0.2,0.1l0,0l0,0l0,0l0,0l0,0l0,0l0,0L346,60.5L346,60.5z M346,60.8L346,60.8L346,60.8L346,60.8L346,60.8
									L346,60.8L346,60.8L346,60.8z"/>
							</g>
						</g>
					</g>
				</g>
				<g transform="matrix(0.942554,0,0,0.942554,24.0656,12.3125)">
					<path class="st3" d="M232.1,160.4c0,0-0.1,12.5-0.5,13.9c-0.3,1-18,5.3-27.2,7.1c-15.9,3.1-32,8.1-48.1,10.1
						c-6.5,0.8-27.1,2.8-28.8,3.1c-0.2,0,2.4,13.8,2.4,13.8s15.4,4.5,34.9-2.5c0.6-0.2,1.3-0.6,2-0.5c3.7,0.6,37.6,1.9,55,3.1
						c45.7,3.2,44.7-17.7,44.3-22.5c-0.1-2.1-2.1-21.9-2.1-21.9S243.1,162,232.1,160.4z"/>
					<g>
						<g>
							<defs>
								<path id="SVGID_11_" d="M232.1,160.4c0,0-0.1,12.5-0.5,13.9c-0.3,1-18,5.3-27.2,7.1c-15.9,3.1-32,8.1-48.1,10.1
									c-6.5,0.8-27.1,2.8-28.8,3.1c-0.2,0,2.4,13.8,2.4,13.8s15.4,4.5,34.9-2.5c0.6-0.2,1.3-0.6,2-0.5c3.7,0.6,37.6,1.9,55,3.1
									c45.7,3.2,44.7-17.7,44.3-22.5c-0.1-2.1-2.1-21.9-2.1-21.9S243.1,162,232.1,160.4z"/>
							</defs>
							<clipPath id="SVGID_12_">
								<use xlink:href="#SVGID_11_"  style="overflow:visible;"/>
							</clipPath>
							<g class="st27">
								<path class="st28" d="M254.6,160.5L254.6,160.5L254.6,160.5L254.6,160.5L254.6,160.5L254.6,160.5L254.6,160.5v0.1l0,0v0.1
									l0,0v0.1l0,0v0.1v0.1l0,0v0.1l-0.1,0.1l-0.1,0.1l-0.1,0.1v0.1v0.1v0.1v0.1v0.1v0.1v0.1v0.1v0.1l0,0v0.1l0,0v0.1v0.1v0.1v0.1
									v0.1v0.1v0.1v0.1v0.1v0.1l-0.1,0.2v0.1v0.1v0.2l-0.1,0.2l-0.1,0.2l-0.1,0.2l-0.1,0.2l-0.1,0.2l-0.1,0.2l-0.1,0.4l-0.1,0.4
									l-0.1,0.4l-0.1,0.2l-0.1,0.2L253,167l-0.1,0.2l-0.1,0.2l-0.1,0.2l-0.1,0.2l-0.1,0.2l-0.1,0.2v0.2v0.2v0.1v0.1v0.1v0.1v0.1
									v0.1v0.1v0.1v0.1v0.1v0.1v0.1v0.1v0.1v0.2v0.2v0.2v0.2v0.1v0.1v0.1v0.1v0.1l0,0v0.1v0.1l0,0v0.1v0.1v0.1v0.1v0.1v0.3
									l-0.1,0.3l-0.1,0.3l-0.1,0.3l-0.1,0.3l-0.1,0.3l-0.1,0.3l-0.1,0.3l-0.1,0.3l0,0l-0.1,0.3l-0.1,0.3l-0.1,0.3l-0.1,0.3
									l-0.1,0.3l-0.1,0.3l-0.1,0.3l-0.2,0.7l-0.2,0.7l-0.4,1.3l-0.2,0.7l-0.2,0.7l-0.1,0.3l-0.1,0.3l-0.1,0.3l-0.1,0.3l-0.1,0.3
									l-0.1,0.3L249,183l-0.1,0.4l-0.2,0.7l-0.1,0.4l-0.1,0.4l-0.1,0.4l-0.1,0.4l-0.1,0.4l-0.1,0.2l-0.1,0.2l-0.1,0.2l-0.1,0.2
									l-0.1,0.2l-0.1,0.2l-0.1,0.2l-0.1,0.2l-0.1,0.2l-0.1,0.2l-0.1,0.2l-0.1,0.2l-0.1,0.2l-0.1,0.2l-0.1,0.2l-0.1,0.2l-0.1,0.2
									l-0.1,0.2l-0.1,0.2l-0.1,0.2l-0.1,0.2l-0.1,0.1l-0.1,0.1l-0.1,0.1l-0.1,0.1l-0.1,0.1l-0.1,0.1l-0.1,0.1l-0.1,0.1l-0.1,0.1
									l-0.1,0.1l-0.1,0.1l-0.1,0.1l-0.1,0.1l-0.1,0.1l-0.1,0.1l-0.1,0.1l-0.1,0.1h-0.1h-0.1h-0.1H244h-0.1h-0.1h-0.1h-0.1h-0.1
									h-0.1h-0.1h-0.1h-0.1H243h-0.1h-0.1h-0.1h-0.1h-0.1h-0.1h-0.1h-0.1h-0.1H242h-0.1h-0.1h-0.1h-0.1h-0.2h-0.2H241h-0.2h-0.2
									h-0.2h-0.2H240h-0.2h-0.2h-0.3h-0.2h-0.3h-0.5h-0.5h-0.5h-0.5h-0.2h-0.2h-0.2H236l-1.6,0.1l-1.6,0.1l-1.6,0.1l-1.6,0.1
									l-1.6,0.1l-1.6,0.1l-3.2,0.2l-1.6,0.1L220,193l-1.6,0.1l-1.6,0.1l-1.6,0.1l-1.6,0.1l-0.8,0.1l-0.8,0.1l-0.8,0.1l-0.8,0.1
									l-1.9,0.1l-1.9,0.1l-1.9,0.1l-1.9,0.1l-1.9,0.1l-1.9,0.1l-1.9,0.1l-1.9,0.1l-3.8,0.2l-3.8,0.2l-3,0.2h-0.7l-1.9,0.1
									l-1.9,0.1l-1.9,0.1l-1.9,0.1l-1.9,0.1l-1.9,0.1l-1.9,0.1l-1.9,0.1l-0.9,0.1l-0.9,0.1l-0.9,0.1l-0.9,0.1l-0.9,0.1l-0.9,0.1
									l-0.9,0.1l-0.9,0.1l-0.9,0.1l-0.9,0.1l-0.9,0.1l-0.9,0.1l-0.9,0.1l-0.9,0.1l-0.9,0.1l-0.9,0.1l-0.9,0.1l-0.9,0.1l-0.9,0.1
									l-0.9,0.1h-0.4h-0.4l-0.7,0.1l-0.8,0.1l-0.8,0.1l-0.8,0.1l-0.8,0.1l-0.8,0.1l-0.8,0.1l-1.6,0.1l-1.6,0.1l-0.8,0.1l-0.8,0.1
									l-0.8,0.1l-0.8,0.1l-0.8,0.1l-0.8,0.1H136h-0.4h-0.4h-0.4l-0.4,0.1l-0.4,0.1l-0.4,0.1l-0.4,0.1l-0.4,0.1l-0.4,0.1l-0.4,0.1
									l-0.4,0.1l-0.4,0.1l-0.4,0.1l-0.4,0.1l-0.4,0.1l-0.4,0.1l-0.4,0.1l-0.4,0.1l-0.4,0.1l-0.4,0.1l-0.4,0.1l-0.4,0.1l-0.4,0.1
									l-0.4,0.1l-0.4,0.1l0,0l-0.4,0.1l-0.4,0.1l-0.3,0.6l0.6,0.3l0.4-0.1l0.4-0.1l0,0l0.3-0.1l0.4-0.1l0.4-0.1l0.4-0.1l0.4-0.1
									l0.4-0.1l0.4-0.1l0.4-0.1l0.4-0.1l0.4-0.1l0.4-0.1l0.4-0.1l0.4-0.1l0.4-0.1l0.4-0.1l0.4-0.1l0.4-0.1l0.4-0.1l0.4-0.1
									l0.4-0.1l0.4-0.1h0.4h0.4h0.4h0.4h0.4l0.8-0.1l0.8-0.1l0.8-0.1l0.8-0.1l0.8-0.1l0.8-0.1l1.6-0.1l1.6-0.1l0.8-0.1l0.8-0.1
									l0.8-0.1l0.8-0.1l0.8-0.1l0.8-0.1l0.8-0.1h0.4h0.4l0.9-0.1l0.9-0.1l0.9-0.1l0.9-0.1l0.9-0.1l0.9-0.1l0.9-0.1l0.9-0.1
									l0.9-0.1l0.9-0.1l0.9-0.1l0.9-0.1l0.9-0.1l0.9-0.1l0.9-0.1l0.9-0.1l0.9-0.1l0.9-0.1l0.9-0.1l0.9-0.1l1.9-0.1l1.9-0.1
									l1.9-0.1l1.9-0.1l1.9-0.1l1.9-0.1l1.9-0.1l1.9-0.1h0.7l3-0.2l3.8-0.2l3.8-0.2l1.9-0.1l1.9-0.1l1.9-0.1l1.9-0.1l1.9-0.1
									l1.9-0.1l1.9-0.1l1.9-0.1l0.8-0.1l0.8-0.1l0.8-0.1h0.8l1.6-0.1l1.6-0.1l1.6-0.1l1.6-0.1l1.6-0.1l1.6-0.1l3.2-0.2l1.6-0.1
									l1.6-0.1l1.6-0.1l1.6-0.1l1.6-0.1l1.6-0.1h0.2h0.2h0.2h0.2h0.5h0.5h0.5h0.5h0.3h0.3h0.3h0.3h0.3h0.3h0.3h0.3h0.3h0.3h0.3
									h0.2h0.2h0.1h0.1h0.1h0.1h0.1h0.1h0.1h0.1h0.1h0.1h0.1h0.1h0.1h0.1h0.1h0.1h0.1h0.1l0.1-0.1l0.1-0.1l0.1-0.1l0.1-0.1
									l0.1-0.1l0.1-0.1l0.1-0.1l0.1-0.1l0.1-0.1l0.1-0.1l0.1-0.1l0.1-0.1l0.1-0.1l0.1-0.1l0.1-0.1l0.1-0.1l0.1-0.1l0.1-0.1
									l0.1-0.1l0.1-0.2l0.1-0.2l0.1-0.2l0.1-0.2l0.1-0.2l0.1-0.2l0.1-0.2l0.1-0.2l0.1-0.2l0.1-0.2l0.1-0.2l0.1-0.2l0.1-0.2
									l0.1-0.2l0.1-0.2l0.1-0.2l0.1-0.2l0.1-0.2l0.1-0.2l0.1-0.2l0.1-0.2l0.1-0.2l0.1-0.2l0.1-0.2l0.1-0.2l0.1-0.2l0.1-0.2
									l0.1-0.2l0.1-0.2l0.1-0.4l0.1-0.4l0.1-0.4l0.1-0.4l0.1-0.4l0.2-0.7l0.1-0.4l0.1-0.3l0.1-0.3l0.1-0.3l0.1-0.3l0.1-0.3
									l0.1-0.3l0.1-0.3l0.2-0.7l0.2-0.7l0.4-1.3l0.2-0.7l0.2-0.7l0.1-0.3l0.1-0.3l0.1-0.3l0.1-0.3l0.1-0.3l0.1-0.3l0.1-0.3l0,0
									l0.1-0.3l0.1-0.3l0.1-0.3l0.1-0.3l0.1-0.3l0.1-0.3v-0.3v-0.3v-0.4v-0.1V171v-0.1v-0.1v-0.1v-0.1v-0.1v-0.1v-0.1v-0.1v-0.1
									V170v-0.2l-0.1-0.2v-0.2v-0.2v-0.1V169v-0.1l0,0v-0.1v-0.1l0,0v-0.1v-0.1v-0.1v-0.1v-0.1v-0.1V168l0,0v-0.1v-0.1v-0.2v-0.2
									v-0.2V167l0.1-0.2l0.1-0.2l0.1-0.2l0.1-0.2l0.1-0.2l0.1-0.2l0.1-0.2l0.1-0.4l0.1-0.4l0.1-0.4l0.1-0.2l0.1-0.2l0.1-0.2
									l0.1-0.2l0.1-0.2l0.1-0.2V163v-0.1v-0.1v-0.2v-0.1v-0.1v-0.1v-0.1v-0.1V162v-0.1v-0.1v-0.1v-0.1l0,0l0,0l0,0l0,0l0,0l0,0
									l0,0l0,0l0,0v-0.1l0,0v-0.1l0,0v-0.1l0,0v-0.1l0,0v-0.1l0,0V161v-0.1l0,0v-0.1l0.1-0.1l0.1-0.1l0.1-0.1v-0.1v-0.1v-0.1v-0.1
									V160v-0.1v-0.1v-0.1l0,0l0,0l0,0l0,0l0,0l0,0l0,0l0,0l0,0l0,0l0,0l0,0l0,0l0,0l0,0l0,0l-0.4,0.1L254.6,160.5L254.6,160.5
									L254.6,160.5L254.6,160.5L254.6,160.5L254.6,160.5z M254.6,160.5L254.6,160.5L254.6,160.5L254.6,160.5L254.6,160.5
									L254.6,160.5L254.6,160.5L254.6,160.5L254.6,160.5L254.6,160.5L254.6,160.5L254.6,160.5L254.6,160.5z M254.6,160.5
									L254.6,160.5L254.6,160.5L254.6,160.5z M254.6,160.5L254.6,160.5L254.6,160.5L254.6,160.5z M254.6,160.5L254.6,160.5
									L254.6,160.5L254.6,160.5z M254.6,160.5L254.6,160.5L254.6,160.5L254.6,160.5z M254.6,160.5L254.6,160.5L254.6,160.5
									L254.6,160.5z M254.6,160.5L254.6,160.5L254.6,160.5L254.6,160.5z M254.6,160.5L254.6,160.5L254.6,160.5L254.6,160.5z
									 M254.6,160.5L254.6,160.5L254.6,160.5L254.6,160.5L254.6,160.5z M254.6,160.5L254.6,160.5L254.6,160.5L254.6,160.5
									L254.6,160.5z M254.6,160.5L254.6,160.5L254.6,160.5L254.6,160.5L254.6,160.5z"/>
								<path class="st28" d="M239.1,162.8L239.1,162.8v0.2v0.1v0.1v0.1v0.1v0.1v0.1l0,0v0.1l0,0.1l0,0v0.1v0.1l0,0v0.1v0.1l0,0v0.1
									v0.1v0.1v0.1v0.1v0.3v0.3l0,0v0.1v0.2v0.2v0.2v0.2v0.2v0.2v0.2v0.2v0.2v0.2v0.1v0.1v0.2v0.2v0.2v0.2v0.2v0.2v0.2v0.2
									l0.1,0.2v0.2l0.1,0.4l0.1,0.4l0.1,0.4l0.1,0.4l0.1,0.4l0.1,0.4v0.1v0.1v0.1v0.1v0.1v0.1v0.1l0,0v0.1l0.1,0.1l0.1,0.1
									l0.1,0.1l0.1,0.1l0.1,0.1l0.1,0.1l0.2,0.2l0.1,0.1l0.1,0.1l0.1,0.1l0,0l0.1,0.1l0.1,0.2l0.2,0.2l0.2,0.2l0.2,0.2l0.2,0.2
									l0.2,0.2l0.2,0.2l0,0l0.2,0.2l0.2,0.2l0.2,0.2l0.2,0.2l0.2,0.2l0.2,0.2l0.2,0.2l0.2,0.2l0.2,0.2l0.1,0.1l0.1,0.1l0.1,0.1
									l0.1,0.1l0.1,0.1l0.1,0.1l0.1,0.1l0.1,0.1l0.1,0.1h0.1l0,0l0.1,0.1l0.1,0.1l0.1,0.1l0.1,0.1l0.1,0.1l0.1,0.1l0.1,0.1
									l0.1,0.1l0.1,0.1l0.1,0.1l0.1,0.1h0.1h0.1h0.1h0.1h0.1h0.1h0.1h0.1h0.1l0,0h0.1h0.1h0.1h0.1h0.1h0.1h0.1h0.1h0.1h0.1h0.1
									h0.1h0.2h0.1h0.2h0.2h0.2h0.2h0.2h0.1h0.1l0,0h0.1h0.1l0,0h0.1l0,0l0,0h0.1l0,0h0.1l0,0h0.1l0,0h0.1l0,0l0,0l0,0l0,0
									l0.3-0.1l0,0l-0.1-0.3l0,0l0,0h-0.1h-0.1h-0.1h-0.1l0,0h-0.1h-0.1H250h-0.1h-0.1h-0.2h-0.2h-0.2H249h-0.2h-0.1h-0.2h-0.1
									h-0.1h-0.1h-0.1l0,0H248h-0.1l0,0h-0.1h-0.1h-0.1h-0.1l0,0h-0.1h-0.1l0,0h-0.1h-0.1H247h-0.1h-0.1h-0.1h-0.1l-0.1-0.1
									l-0.1-0.1l-0.1-0.1l-0.1-0.1l-0.1-0.1l-0.1-0.1l-0.1-0.1l-0.1-0.1l-0.1-0.1l-0.1-0.1l-0.1-0.1l-0.1-0.1l-0.1-0.1l0,0h-0.1
									l-0.1-0.1l-0.1-0.1l-0.1-0.1l-0.1-0.1l-0.1-0.1l-0.1-0.1l-0.1-0.1l-0.1-0.1l-0.1-0.1l-0.2-0.2l-0.2-0.2l-0.2-0.2l-0.2-0.2
									l-0.2-0.2l-0.2-0.2l-0.1-0.2l-0.1-0.2l-0.1-0.2l0,0l-0.1-0.2l-0.1-0.2l-0.1-0.2l-0.1-0.2l-0.1-0.2l-0.1-0.2l-0.1-0.2
									l-0.1-0.1l-0.1-0.1l-0.1-0.1l-0.1-0.1l-0.2-0.2l-0.1-0.1l-0.1-0.1l-0.1-0.1l-0.1-0.1l0,0l-0.1-0.1l-0.1-0.1l0,0v-0.1l0,0
									V172l0,0v-0.1l0,0v-0.1l0,0v-0.1l0,0v-0.1l0,0v-0.1l0,0v-0.1l-0.1-0.3l-0.1-0.4l-0.1-0.4l-0.1-0.4l-0.1-0.4l-0.1-0.4V169
									l-0.1-0.2l-0.1-0.2l-0.1-0.2l-0.1-0.2l-0.1-0.2l-0.1-0.2v-0.2v-0.2v-0.2v-0.1V167v-0.2v-0.2v-0.2v-0.2V166v-0.2v-0.2v-0.2
									v-0.2v-0.1V165l0,0v-0.3v-0.3v-0.2V164v-0.2l0-0.2v-0.2v-0.2V163v-0.1v-0.1v-0.1v-0.1v-0.1v-0.1l0,0l0,0l0,0v-0.1l0,0v-0.1
									l0,0v-0.1l0,0V162v-0.1v-0.1v-0.1v-0.1v-0.1l0,0l0,0l0,0l0,0l0,0l0,0h-0.1h-0.1h-0.1h-0.1l0,0l-0.2,0.4l0.4,0.2l0,0l0,0l0,0
									L239.1,162.8L239.1,162.8L239.1,162.8v-0.1V162.8v-0.1l0,0l0,0l0,0l0,0V162.8v-0.1V162.8L239.1,162.8L239.1,162.8
									L239.1,162.8L239.1,162.8L239.1,162.8z"/>
								<path class="st28" d="M238.1,165.7L238.1,165.7L238.1,165.7L238.1,165.7l-0.1,0.1l0,0l0,0v0.1l0,0l0,0v0.1v0.1v0.1l0,0v0.1
									v0.1v0.1v0.1v0.1v0.1v0.2v0.2v0.1l0,0v0.1l0.1,0.6l0.1,0.3l0.1,0.3l0.1,0.3l0.1,0.3l0.1,0.3l0.1,0.3l0.1,0.3l0.1,0.3
									l0.1,0.3l0.1,0.3l0.1,0.3l0.1,0.3l0.1,0.3l0.1,0.3v0.1l0.1,0.1l0.1,0.1l0.1,0.1l0.1,0.1l0.1,0.1l0.1,0.1l0.1,0.1l0.1,0.1
									l0.1,0.1l0.1,0.1l0.1,0.1l0.1,0.1l0.1,0.1v0.1l0,0l0.1,0.1l0.1,0.1l0.1,0.1l0.1,0.1l0.1,0.1l0.1,0.1l0.1,0.1l0.1,0.1
									l0.1,0.1l0.1,0.1l0.1,0.1l0.1,0.1l0.1,0.1l0.1,0.1l0.1,0.1l0.2,0.2l0.2,0.2l0.2,0.2l0.2,0.2l0.2,0.2l0.2,0.2l0.2,0.2
									l0.2,0.2l0.2,0.2l0,0l0.1,0.1l0.2,0.2l0.4,0.4l0.4,0.4l0.4,0.4l0.3,0.3l0.2,0.1l0.2,0.1l0.2,0.2l0.1,0.1l0.1,0.1l0.2,0.1
									l0.1,0.1l0.1,0.1l0.1,0.1l0.1,0.1l0.1,0.1l0.1,0.1l0.1,0.1l0.1,0.1l0.1,0.1h0.1h0.1h0.1h0.1h0.1h0.1h0.1h0.1h0.1h0.1h0.4
									h0.4h0.2h0.1h0.2h0.2h0.2h0.2h0.2h0.2h0.2h0.1l0,0h0.1h0.1l0,0h0.1h0.1l0,0h0.1l0,0h0.1l0,0h0.1l0.4-0.2l0,0l-0.2-0.4h-0.1
									h-0.1H252h-0.1h-0.1h-0.1h-0.1h-0.1l-0.2-0.1l-0.2-0.1h-0.2h-0.2h-0.2h-0.2h-0.2H250h-0.2l-0.4-0.1l-0.3-0.1H249l0,0h-0.1
									l0,0h-0.1l0,0h-0.1l0,0h-0.1l0,0h-0.1h-0.1l0,0h-0.1l0,0h-0.1l0,0l-0.1-0.1l-0.1-0.1l0,0l-0.1-0.1l-0.1-0.1l-0.1-0.1
									l-0.1-0.1l-0.1-0.1l-0.1-0.1l-0.1-0.1l-0.2-0.1l-0.1-0.1l-0.1-0.1l-0.2-0.1l-0.2-0.1l-0.2-0.1l-0.3-0.3l-0.4-0.4l-0.4-0.4
									l-0.4-0.3l-0.2-0.2l-0.1-0.1l0,0l-0.2-0.2l-0.2-0.2l-0.2-0.2l-0.2-0.2l-0.2-0.2l-0.2-0.2l-0.2-0.2l-0.2-0.2l-0.2-0.2
									l-0.1-0.1l-0.1-0.1l-0.1-0.1l-0.1-0.1l-0.1-0.1l-0.1-0.1l-0.1-0.1l-0.1-0.1l-0.1-0.1l-0.1-0.1l-0.1-0.1l-0.1-0.1l-0.1-0.1
									l-0.1-0.1l-0.1-0.1l0,0v-0.1l-0.1-0.1l-0.1-0.1l-0.1-0.1l-0.1-0.1l-0.1-0.1l-0.1-0.1l-0.1-0.1l-0.1-0.1l-0.1-0.1l-0.1-0.1
									l-0.1-0.1l-0.1-0.1l-0.1-0.1l-0.1-0.1l-0.1-0.3l-0.1-0.3l-0.1-0.3l-0.1-0.3l-0.1-0.3l-0.1-0.3l-0.1-0.3L239,169l-0.1-0.3
									l-0.1-0.3l-0.1-0.3l-0.1-0.3l-0.1-0.3l-0.1-0.3l-0.1-0.6v-0.1v-0.1v-0.2V166v-0.1l0,0v-0.1v-0.1v-0.1v-0.1l0,0l0,0l0,0l0,0
									l0,0l0,0l0,0l0,0l0,0l0,0l0,0l0,0l0,0l0,0l0,0l0,0l0.1-0.4l0,0L238.1,165.7L238.1,165.7z"/>
								<path class="st28" d="M258.8,162.8l-0.1-0.3l0,0l-0.3,0.1v0.1v0.1v0.1v0.1v0.1v0.1v0.1v0.1v0.1v0.1v0.1v0.1v0.1l0,0v0.1v0.2
									v0.2v0.2v0.3v0.1l0,0v0.1v0.1l0,0v0.1l0,0v0.1v0.3v0.3v0.6v0.3v0.3v0.3v0.3v0.3v0.2v0.2l0,0v0.1v0.2v0.2v0.2v0.2v0.2v0.2
									v0.1l0,0v0.1v0.1v0.1v0.1v0.1v0.1l-0.1,0.3v0.2v0.2v0.1v0.1l-0.1,0.2l0,0v0.1v0.1l0,0l0,0l0,0v-0.2v-0.2v-0.2l0,0V171v-0.2
									v-0.2v-0.2v-0.2V170v-0.2v-0.2v-0.2v-0.3V169v-0.4v-0.3V168v-0.3v-0.3v-0.3v-0.3v-0.1v-0.5v-0.6v-0.3V165v-0.3v-0.3v-0.3
									v-0.3v-0.1v-0.1v-0.2v-0.2V163v-0.1l0,0v-0.1l0,0v-0.1v-0.1l0,0v-0.1l0,0l0,0l0,0l0,0l0,0l0,0l0,0l0,0l0,0l0,0l0,0l0,0l0,0
									l0,0l0,0l0,0l0,0l0,0l0,0l0,0l-0.1-0.4l-0.4,0.1l0,0v0.1v0.1l0,0l0,0l0,0v0.1v0.1v0.1v0.1l0,0v0.1v0.2v0.2v0.2l0,0v0.1l0,0
									v0.1l0,0v0.3v0.3v0.3v0.3v0.3v0.3v0.6v0.5v0.1v0.3v0.3v0.3v0.3v0.3v0.3v0.4v0.1v0.3v0.2v0.2v0.2v0.2v0.2v0.2v0.2v0.2v0.2
									l0,0v0.2v0.2v0.2v0.1v0.1v0.2v0.1v0.1v0.1v0.1v0.1v0.1l0,0l0,0l0,0l0,0v0.1l0.1,0.1l0,0l0,0l0,0l0,0h0.1h0.1l0,0h0.1h0.1
									h0.1h0.1h0.1l0,0l0,0l0,0l0,0l0,0l0,0l0.1-0.1v-0.1v-0.1v-0.1v-0.1v-0.1v-0.1v-0.1V172v-0.1v-0.1v-0.1v-0.2v-0.1v-0.1v-0.2
									v-0.2l0.1-0.3v-0.1v-0.1v-0.2V170v-0.2v-0.1l0,0v-0.2v-0.2v-0.2v-0.2v-0.2v-0.2v-0.2v-0.1l0,0V168v-0.2v-0.3v-0.3v-0.3v-0.3
									v-0.2v-0.1v-0.6v-0.3v-0.3V165v-0.1v-0.1v-0.1l0,0v-0.1l-0.1-0.3v-0.1v-0.1V164v-0.1l0,0l0,0l0,0v-0.1l0,0v-0.1l0,0v-0.1
									l0,0v-0.1l0,0v-0.1l0,0v-0.1l0,0v-0.1l0,0v-0.1l0,0V163l0,0L258.8,162.8v0.1V162.8L258.8,162.8L258.8,162.8z M257.5,171.9
									L257.5,171.9L257.5,171.9L257.5,171.9z M257.5,171.9L257.5,171.9L257.5,171.9L257.5,171.9z"/>
								<path class="st28" d="M261.9,162.7L261.9,162.7L261.9,162.7L261.9,162.7L261.9,162.7L261.9,162.7v0.1l0,0v0.1l0,0v0.1v0.1
									l0,0v0.1v0.1v0.3v0.3v0.1v0.1v0.1v0.1v0.7v0.7v0.3v0.3v0.3v0.2v0.1v0.3v0.3v0.2v0.2v0.2v0.2v0.2v0.2v0.2v0.2v0.2l0,0v0.1
									v0.2v0.2v0.1v0.1v0.2v0.2v0.2v0.2v0.2v0.1l0,0v0.1v0.1v0.1v0.1v0.1v0.1v0.1v0.1v0.1l0,0v0.1v0.1v0.1v0.1v0.1l0.1,0.1
									l0.1,0.1l0.1,0.1l0,0h0.1h0.1h0.1h0.1h0.1h0.1h0.1l0,0l0,0l0,0l0,0l0,0l0,0l0,0l0,0l0,0v-0.1v-0.1v-0.1v-0.1v-0.1v-0.1v-0.1
									V172v-0.1v-0.1v-0.1l0.1-0.2l0.1-0.2l0.1-0.2v-0.2v-0.1v-0.1v-0.2v-0.2v-0.2v-0.2v-0.2v-0.2v-0.2v-0.2v-0.2v-0.2v-0.2v-0.2
									v-0.1v-0.1v-0.2v-0.2v-0.2v-0.2v-0.2v-0.2v-0.5v-0.5v-0.4v-0.1v-0.5v-0.5v-0.5v-0.5l-0.2-0.2l-0.2,0.2v0.5v0.5v0.5v0.5v0.1
									v0.4v0.5v0.5v0.2v0.2v0.2v0.2v0.2v0.2v0.1v0.1v0.2v0.2v0.2v0.2v0.2v0.2v0.2v0.2v0.2v0.2v0.2v0.2v0.1v0.1v0.2v0.2v0.2v0.2
									v0.1v0.1v0.1v0.1v0.1l0,0v0.1l0,0v-0.1l0,0v-0.1l0,0V172l0,0v-0.1v-0.1l0,0v-0.1v-0.1l0,0v-0.1v-0.1l0,0l0,0v-0.1v-0.2v-0.2
									v-0.2v-0.2v-0.1v-0.1v-0.1V170v-0.2v-0.2l0,0v-0.2v-0.2V169v-0.2v-0.2v-0.2v-0.2V168v-0.2v-0.3v-0.3v-0.1v-0.2v-0.3v-0.3
									V166v-0.7v-0.7l0,0v-0.1l0,0v-0.1l0,0v-0.1v-0.1v-0.3v-0.3v-0.1v-0.1v-0.1v-0.1v-0.1V163v-0.1v-0.1l0,0l0,0v-0.1v-0.1l0,0
									l-0.4-0.1L261.9,162.7L261.9,162.7L261.9,162.7L261.9,162.7L261.9,162.7L261.9,162.7z"/>
								<path class="st28" d="M248.8,165.3v-0.1l0.1-0.3v-0.1v-0.1v-0.1v-0.1v-0.1v-0.1v-0.1v-0.1l0-0.1v-0.1v-0.1v-0.1v-0.1l0,0
									l0,0v-0.1l-0.3-0.2l-0.2,0.3l0,0v0.1l0,0v0.1l0,0v0.1l0,0l0,0.1l0,0v0.1l0,0v0.1l0,0v0.1l0,0v0.1l0,0v0.1l0,0v0.1v0.1l0,0
									v0.1v0.1v0.1l-0.1,0.3v0.1v0.1v0.1v0.1v0.1v0.1v0.2v0.2v0.1v0.1v0.2v0.2v0.2v0.2v0.3v0.2v0.2v0.2l0,0v0.1v0.2v0.2v0.2v0.2
									v0.1v0.1v0.1v0.1v0.1v0.1v0.1l0,0v0.1v0.1v0.1v0.1v0.1v0.1v0.1v0.1v0.1v0.1v0.1v0.1v0.1l0,0h0.1h0.1h0.1h0.1h0.1h0.1h0.1
									h0.1h0.1h0.1h0.1h0.1l0,0l0,0l0,0l0,0l0.1-0.1l0.1-0.1v-0.1v-0.1v-0.1v-0.1v-0.1v-0.1v-0.1v-0.1V170l0,0l0.1-0.2v-0.2v-0.2
									v-0.1v-0.2l0.1-0.4l0.1-0.4l0.1-0.4l0.1-0.4l0,0l0.1-0.4l0.1-0.4l0.1-0.4v-0.2v-0.2v-0.2v-0.2v-0.2v-0.2v-0.2v-0.2v-0.2
									v-0.2v-0.2l0-0.2v-0.2v-0.1v-0.1v-0.2v-0.2v-0.2v-0.2l-0.2-0.2l-0.2,0.2v0.2v0.2v0.2v0.2v0.1v0.1v0.2l0,0.2v0.2v0.2v0.2v0.2
									v0.2v0.2v0.2v0.2v0.2v0.2v0.2l-0.1,0.4l-0.1,0.4l-0.1,0.4l0,0l-0.1,0.3l-0.1,0.4l-0.1,0.4l-0.1,0.4l-0.1,0.2v0.1v0.2
									l-0.1,0.2l-0.1,0.2l0,0v0.1v0.1v0.1v0.1l0,0l0,0l0,0v-0.1v-0.1V170v-0.1l0,0v-0.1v-0.1v-0.2v-0.2v-0.2v-0.2v-0.1v-0.1v-0.2
									v-0.2v-0.2v-0.3v-0.2v-0.2v-0.2V167v-0.1v-0.1v-0.2v-0.2l0,0v-0.1v-0.1l0,0v-0.1l0,0V166l0,0L248.8,165.3z"/>
							</g>
						</g>
					</g>
				</g>
				<g transform="matrix(0.729073,0.597378,-0.597378,0.729073,208.068,-194.429)">
					<path class="st22" d="M252.4,223.9c-2.2,2-1.6,9.3-1.3,16.2c0.5,9.4,1.2,17.7,1.2,17.7s-17-13.4-24.8-17.2
						c-3.1-1.5-1.6,5.3-1,6.1c8.2,10.6,25.2,28.8,31.6,27.6c4.1-0.8,5.6-5,9.4-28.4C270.7,226.4,260.5,216.3,252.4,223.9z"/>
				</g>
				<g transform="matrix(-0.773551,-1.0033,-1.0033,0.773551,978.224,244.902)">
					<path class="st22" d="M439.1,406.4c0.6-0.2,1.1-0.6,1.5-0.9c1.2-0.9,2.1-1.9,3.2-2.9c0.4-0.3,0.8-0.7,1.2-1
						c0.1-0.1,0.4-0.3,0.5-0.2c0.3,0.1,0.1,0.8,0,1c-0.3,0.7-0.8,1.3-1.3,1.9c0,0-0.4,0.5-0.4,0.6s0.2,0,0.3,0
						c0.7-0.2,1.4-0.7,2.1-1.1c1.7-0.9,3.3-2,4.9-2.9c0.6-0.3,1.2-0.6,1.8-0.9c0,0,0.5-0.2,0.5-0.1c0.1,0.2,0,0.4-0.1,0.6
						c-0.3,0.5-0.7,0.9-1.1,1.3c-1.2,1.1-2.6,2-4,3c-0.5,0.3-1.1,0.6-1.6,1.1c-0.1,0.1,0.2-0.1,0.3-0.1c0.2-0.1,0.3-0.1,0.5-0.2
						c0.5-0.2,1-0.4,1.5-0.6c1.5-0.6,2.8-1.5,4.2-2.2c0.5-0.2,1-0.5,1.5-0.7c0.1,0,0.5-0.3,0.5-0.1c0.1,0.6-0.7,1.3-1.2,1.6
						c-1.3,1.1-2.7,2.1-4.2,3c-0.5,0.3-1.1,0.7-1.6,1.1c-0.2,0.1-0.4,0.2-0.6,0.4c-0.1,0.1-0.4,0.2-0.3,0.2c2.2-0.9,4.3-1.9,6.4-3
						c0.1-0.1,0.3-0.1,0.4-0.2c0.3-0.1,1.7-1,1.6-0.1c-0.1,0.5-0.5,0.8-0.8,1.1c-0.7,0.7-1.6,1.2-2.5,1.8c-1.9,1.2-4.4,2.2-6.6,2.7
						c-1.2,0.2-2.5,0.3-3.7,0.4c-1.1,0.1-2.2,0.3-3.2,0c-0.3-0.1-0.7-0.1-1-0.4c-0.4-0.5-0.5-1.3-0.6-1.9L439.1,406.4z"/>
				</g>
				<g transform="matrix(-1.22702,0.315309,0.315309,1.22702,665.501,-337.54)">
					<path class="st29" d="M449.9,277.7c1.5-2.4,5.2-3.4,6.4-4.2c0.9-0.6,2.6-1.7,2.9-1.1c0.6,0.9-2.7,3.3-2.6,3.3
						c0.7-0.2,7.3-3.2,7.8-2.5c1.2,1.8-4.1,3-4.6,3.4c-0.1,0.1,3.7-1.8,4-0.6c0.4,1.9-4.2,2.5-3.9,2.5c0.9,0,3.4-0.7,3.4-0.1
						c0.3,1.7-2.7,2.4-5,2.8c-1.2,0.2-2.5,0.3-3.7,0.4c-1.1,0.1-2.2,0.2-3.2,0c-0.3-0.1-0.7-0.1-1-0.4
						C450,280.8,449.2,278.7,449.9,277.7z"/>
				</g>
				<g transform="matrix(0.788687,-0.879064,0.879064,0.788687,-222.073,202.488)">
					<path class="st30" d="M324.2,215.4c0,0-6.5-0.3-9.9,3.1c-3.4,3.4-2.1,12,0.9,13.7c0,0,5.7-1.6,7.1-2.4c0,0-1-2.5-0.1-4
						c0,0-0.1,4.5,2.9,6.9c0,0,3.7,2.1,2,5.1c0,0,3.1-0.9,2.2-4.7c0,0-0.7-2.5,1.5-3s3.3,4.3,0.5,5.2c0,0,1.7,1.1-0.7,4.8
						c-4.7,7.1,3.9,10.4,3.9,10.4s7.6,0.6,10.5-1.4c3.4-2.4,9-7.1,2.7-14.9c-4.5-5.7,6.8-14.2-9.4-19.7
						C334.2,213.2,328.6,214.6,324.2,215.4z"/>
				</g>
				<g transform="matrix(0.775976,0.399425,-0.314691,0.774302,194.507,-35.9645)">
					<path class="st8" d="M23.4,294.6c0.5-0.3,3.4-1.9-0.3-2.3c-1.9-0.2-7.2-2.1-10.5-7.9c-1.5-2.7-1.9-3.1-3.7-3.6
						c-1.3-0.4-1.9,1-2.9,1.4c9.8,16.2,17.7,19.6,18.7,19.9c2-2.2,1.1-3.1,2.4-3.6C27.4,297.7,24.6,295.3,23.4,294.6z"/>
					<g>
						<g>
							<defs>
								<path id="SVGID_13_" d="M23.4,294.6c0.5-0.3,3.4-1.9-0.3-2.3c-1.9-0.2-7.2-2.1-10.5-7.9c-1.5-2.7-1.9-3.1-3.7-3.6
									c-1.3-0.4-1.9,1-2.9,1.4c9.8,16.2,17.7,19.6,18.7,19.9c2-2.2,1.1-3.1,2.4-3.6C27.4,297.7,24.6,295.3,23.4,294.6z"/>
							</defs>
							<clipPath id="SVGID_14_">
								<use xlink:href="#SVGID_13_"  style="overflow:visible;"/>
							</clipPath>
							<g class="st31">
								<g transform="matrix(1.00164,-0.157258,0.158597,0.973461,-35.845,38.8208)">
									<path class="st32" d="M14.8,268.4c0.5,0.4,0.9,0.7,1.4,1c1.5,1.2,3.9,2.7,4,2.7c1.7,1.1,2,5.5-4.5,0.6
										c-9-5.4-13.3-15.2-15.9-25.4l-0.7-3.7l0.3-0.6l0.8,1.2c0.5,1.5,1,3.1,1.5,4.6l0-2.3c0.2-0.8,0.5-0.9,1.2-0.7
										c1.2,0.6,0.6,1.6,0.6,1.6c0.3,2,0.8,4,1.4,6c1.2,1.3,6.8,5.3,8.1,10c0,0,1,2.3,1.3,3.6C14.5,267.5,14.6,268,14.8,268.4z
										 M5.8,255.7c1.7,4.3,4.1,8.3,7.4,11.4c-0.4-1.7-0.8-3.3-1.3-4.9c-0.6-2-2-3.1-2.5-3.5c-0.9-0.8-1.6-1.1-2.1-1.6
										C6.8,256.6,6.3,256.2,5.8,255.7z M13.4,265.1l0.5,1.2C13.9,266.3,13.4,264.9,13.4,265.1z"/>
								</g>
							</g>
						</g>
					</g>
				</g>
				<g transform="matrix(-0.0327235,-0.858423,0.884275,-0.113308,153.692,496.667)">
					<path class="st8" d="M248.3,55.2c0.5-0.3,3.4-1.9-0.3-2.3c-1.9-0.2-7.2-2.1-10.5-7.9c-1.5-2.7-1.9-3.1-3.7-3.6
						c-1.3-0.4-1.9,1-2.9,1.4c9.8,16.2,17.7,19.6,18.7,19.9c2-2.2,1.1-3.1,2.4-3.6C252.2,58.3,249.4,55.9,248.3,55.2z"/>
					<g>
						<g>
							<defs>
								<path id="SVGID_15_" d="M248.3,55.2c0.5-0.3,3.4-1.9-0.3-2.3c-1.9-0.2-7.2-2.1-10.5-7.9c-1.5-2.7-1.9-3.1-3.7-3.6
									c-1.3-0.4-1.9,1-2.9,1.4c9.8,16.2,17.7,19.6,18.7,19.9c2-2.2,1.1-3.1,2.4-3.6C252.2,58.3,249.4,55.9,248.3,55.2z"/>
							</defs>
							<clipPath id="SVGID_16_">
								<use xlink:href="#SVGID_15_"  style="overflow:visible;"/>
							</clipPath>
							<g class="st33">
								<g transform="matrix(1.00164,-0.157258,0.158597,0.973461,-35.845,38.8208)">
									<path class="st32" d="M271.6,64c0.5,0.4,0.9,0.7,1.4,1c1.5,1.2,3.9,2.7,4,2.7c1.7,1.1,2,5.5-4.5,0.6
										c-9-5.4-13.3-15.2-15.9-25.4l-0.7-3.7l0.3-0.6l0.8,1.2c0.5,1.5,1,3.1,1.5,4.6v-2.3c0.2-0.8,0.5-0.9,1.2-0.7
										c1.2,0.6,0.6,1.6,0.6,1.6c0.3,2,0.8,4,1.4,6c1.2,1.3,6.8,5.3,8.1,10c0,0,1,2.3,1.3,3.6C271.4,63,271.5,63.5,271.6,64z
										 M262.6,51.3c1.7,4.3,4.1,8.3,7.4,11.4c-0.4-1.7-0.8-3.3-1.3-4.9c-0.6-2-2-3.1-2.5-3.5c-0.9-0.8-1.6-1.1-2.1-1.6
										C263.6,52.2,263.1,51.7,262.6,51.3z M270.3,60.7l0.5,1.2C270.7,61.9,270.2,60.4,270.3,60.7z"/>
								</g>
							</g>
						</g>
					</g>
				</g>
			</g>
		</g>
		<g transform="matrix(0.684871,0,0,1.057,90.6212,-13.0962)">
			<polygon class="st34" points="434,170.7 466.5,200.6 464.4,202.9 431.9,172.9 			"/>
		</g>
		<g transform="matrix(-0.424098,0.767492,-0.698547,-0.386,574.076,53.0448)">
			<polygon class="st34" points="197.7,113.4 195.2,82.3 199.5,82 202,113.1 			"/>
		</g>
	</g>
	<text transform="matrix(0.5596 0 0 1 272 287.7441)" class="st35 st36 st37">Nothing Here</text>
	<text transform="matrix(0.4583 0 0 1 276 348.1361)" class="st35 st36 st38">Please Add One</text>
</g>
<g id="DESIGNED_BY_FREEPIK">
	<g>
		<g id="XMLID_29_">
			<g id="XMLID_48_">
				<path id="XMLID_56_" class="st39" d="M385.1,465.5c-0.4,0.4-0.8,0.9-1.1,1.5l-0.5-0.2c-0.1-0.3-0.3-0.5-0.7-0.5
					c-0.3,0-0.6,0.3-0.5,0.7c0,0.3,0.3,0.6,0.7,0.5c0.1,0,0.1,0,0.2-0.1l0.5,0.2c-0.3,0.6-0.4,1.1-0.5,1.7l0.7,0.1
					c0.2-1.3,0.8-2.5,1.8-3.5L385.1,465.5z"/>
				<path id="XMLID_55_" class="st39" d="M390.6,463.2c-0.2,0-0.3,0-0.5,0l-0.1-0.6c0.2-0.1,0.3-0.4,0.3-0.6c0-0.4-0.4-0.7-0.8-0.6
					c-0.4,0-0.7,0.4-0.6,0.8c0,0.3,0.2,0.5,0.4,0.6l0.1,0.6c-0.7,0.1-1.4,0.3-2.1,0.6l0.3,0.7c0.9-0.4,1.9-0.7,3-0.7
					c0.5,0,1,0.1,1.5,0.2l0.2-0.7C391.7,463.2,391.1,463.2,390.6,463.2z"/>
				<path id="XMLID_54_" class="st39" d="M397.2,465.7c0.3,0,0.6-0.3,0.5-0.7c0-0.3-0.3-0.6-0.7-0.5c-0.3,0-0.5,0.3-0.5,0.6
					l-0.4,0.4c-0.4-0.4-0.9-0.8-1.4-1.1l-0.4,0.6c1.1,0.7,2,1.7,2.6,2.9l0.7-0.3c-0.3-0.6-0.6-1.1-0.9-1.5L397.2,465.7
					C397.1,465.7,397.1,465.7,397.2,465.7z"/>
				<path id="XMLID_53_" class="st39" d="M390,473.4c-0.4,0-0.8,0-1.2,0c-0.9,0-1.7-0.1-2.5-0.2c-0.4-0.1-0.8-0.2-1.3-0.3
					c1,1.9,3.1,3.1,5.4,3.1c2.9,0,5.3-1.9,5.9-4.5c-0.7,0.4-1.5,0.8-2.5,1.1C392.8,473,391.5,473.3,390,473.4z"/>
				<path id="XMLID_49_" class="st39" d="M390.6,464.7c-3.4,0-6.1,2.7-6.1,5.9c0,0.4,0,0.8,0.1,1.3c0.7,0.5,2.7,0.9,5.3,0.7
					c2.9-0.2,5.3-1,6.7-2.2c0-0.2,0-0.4,0-0.6C396.2,466.9,393.6,464.7,390.6,464.7z M388.4,471.2c-1,0-1.8-0.8-1.8-1.8
					s0.8-1.9,1.8-1.9s1.8,0.8,1.8,1.9C390.3,470.4,389.5,471.2,388.4,471.2z M393.2,470.3c-0.8,0-1.4-0.6-1.4-1.4s0.6-1.4,1.4-1.4
					s1.4,0.6,1.4,1.4S393.9,470.3,393.2,470.3z"/>
			</g>
			<path id="XMLID_46_" class="st39" d="M406.6,466.5c-0.3-0.1-0.8-0.3-1.4-0.2c-0.6,0.1-0.8,0.3-0.8,1v0.9h2.2v1.7h-2.2v5.5h-1.9
				v-5.5h-1.3v-1.7h1.3v-0.9c0-1.7,0.9-2.8,2.6-2.8c0.6,0,1.2,0.1,1.6,0.3v1.7H406.6z"/>
			<path id="XMLID_44_" class="st39" d="M411.3,469.9c-0.2,0-0.4,0-0.5,0c-0.9,0-1.5,0.5-1.5,1.6v3.9h-1.9v-7.2h1.9v0.8
				c0.5-0.7,1.1-1,2-1c0.4,0,0.8,0.1,1.1,0.3L411.3,469.9z"/>
			<path id="XMLID_41_" class="st39" d="M419,471.8c0,0.2,0,0.5,0,0.7h-5.1c0.2,1,0.9,1.5,1.8,1.5c0.6,0,1.3-0.3,1.8-0.7l1.1,1.2
				c-0.8,0.7-1.9,1.1-3.1,1.1c-2.2,0-3.7-1.5-3.7-3.8s1.5-3.8,3.6-3.8C417.5,468,419,469.5,419,471.8z M413.9,471.1h3.2
				c-0.2-0.9-0.7-1.4-1.6-1.4S414,470.2,413.9,471.1z"/>
			<path id="XMLID_38_" class="st39" d="M426.6,471.8c0,0.2,0,0.5,0,0.7h-5.1c0.2,1,0.9,1.5,1.8,1.5c0.6,0,1.3-0.3,1.8-0.7l1.1,1.2
				c-0.8,0.7-1.9,1.1-3.1,1.1c-2.2,0-3.7-1.5-3.7-3.8s1.5-3.8,3.6-3.8C425.2,468,426.6,469.5,426.6,471.8z M421.5,471.1h3.2
				c-0.2-0.9-0.7-1.4-1.6-1.4S421.7,470.2,421.5,471.1z"/>
			<path id="XMLID_35_" class="st39" d="M435,471.8c0,2.2-1.5,3.8-3.5,3.8c-1,0-1.6-0.4-2.1-0.9v3.7h-1.9v-10.1h1.9v0.8
				c0.5-0.6,1.2-1,2.1-1C433.5,468,435,469.6,435,471.8z M429.3,471.8c0,1.1,0.7,2,1.8,2c1.1,0,1.8-0.9,1.8-2s-0.7-2-1.8-2
				S429.3,470.6,429.3,471.8z"/>
			<path id="XMLID_32_" class="st39" d="M438.1,465.8c0,0.7-0.5,1.2-1.2,1.2s-1.2-0.5-1.2-1.2s0.5-1.2,1.2-1.2
				C437.5,464.6,438.1,465.1,438.1,465.8z M437.8,475.4h-1.9v-7.2h1.9V475.4z"/>
			<path id="XMLID_30_" class="st39" d="M441,470.7l2.7-2.6h2.4l-3.5,3.4l3.5,3.8h-2.4l-2.7-2.9v2.9h-1.9v-10.7h1.9V470.7z"/>
		</g>
		<g>
			<path class="st39" d="M309.4,475.3v-1.1c-0.5,0.7-1.4,1.2-2.4,1.2c-1.8,0-3.1-1.4-3.1-3.7c0-2.3,1.3-3.7,3.1-3.7
				c1,0,1.8,0.5,2.4,1.2v-3.8h1.1v9.8h-1.1V475.3z M309.4,473.4v-3.2c-0.4-0.6-1.2-1.1-2.1-1.1c-1.4,0-2.3,1.2-2.3,2.7
				c0,1.6,0.8,2.7,2.3,2.7C308.2,474.5,309,474,309.4,473.4z"/>
			<path class="st39" d="M311.9,471.7c0-2.1,1.5-3.7,3.5-3.7c2.1,0,3.4,1.7,3.4,3.8v0.3h-5.7c0.1,1.3,1,2.4,2.5,2.4
				c0.8,0,1.6-0.3,2.2-0.9l0.5,0.7c-0.7,0.7-1.7,1.1-2.8,1.1C313.4,475.5,311.9,474,311.9,471.7z M315.4,468.9
				c-1.5,0-2.3,1.3-2.3,2.4h4.6C317.7,470.3,317,468.9,315.4,468.9z"/>
			<path class="st39" d="M319.6,474.4l0.6-0.8c0.5,0.5,1.4,1,2.3,1c1.1,0,1.7-0.5,1.7-1.2c0-1.7-4.4-0.7-4.4-3.3c0-1.1,1-2,2.6-2
				c1.2,0,2.1,0.5,2.6,1l-0.5,0.8c-0.4-0.5-1.2-0.9-2.1-0.9c-1,0-1.6,0.5-1.6,1.1c0,1.6,4.4,0.5,4.4,3.3c0,1.2-1,2.1-2.8,2.1
				C321.3,475.5,320.3,475.1,319.6,474.4z"/>
			<path class="st39" d="M326.5,466.5c0-0.4,0.3-0.7,0.7-0.7c0.4,0,0.7,0.3,0.7,0.7c0,0.4-0.3,0.7-0.7,0.7S326.5,466.9,326.5,466.5z
				 M326.7,475.3v-7.1h1.1v7.1H326.7z"/>
			<path class="st39" d="M329.6,477.1l0.6-0.8c0.6,0.7,1.3,1,2.3,1c1.2,0,2.3-0.6,2.3-2.1v-1c-0.5,0.7-1.4,1.3-2.4,1.3
				c-1.8,0-3.1-1.4-3.1-3.7c0-2.3,1.3-3.7,3.1-3.7c1,0,1.8,0.5,2.4,1.2v-1.1h1.1v6.9c0,2.3-1.6,3.1-3.4,3.1
				C331.2,478.2,330.4,477.9,329.6,477.1z M334.7,473.3v-3.1c-0.4-0.6-1.2-1.1-2.1-1.1c-1.4,0-2.3,1.1-2.3,2.7s0.8,2.7,2.3,2.7
				C333.5,474.4,334.3,473.9,334.7,473.3z"/>
			<path class="st39" d="M342.4,475.3v-4.6c0-1.2-0.6-1.6-1.6-1.6c-0.9,0-1.7,0.5-2.1,1.1v5.2h-1.1v-7.1h1.1v1
				c0.5-0.6,1.5-1.2,2.5-1.2c1.5,0,2.3,0.7,2.3,2.3v5L342.4,475.3L342.4,475.3z"/>
			<path class="st39" d="M344.9,471.7c0-2.1,1.5-3.7,3.5-3.7c2.1,0,3.4,1.7,3.4,3.8v0.3h-5.7c0.1,1.3,1,2.4,2.5,2.4
				c0.8,0,1.6-0.3,2.2-0.9l0.5,0.7c-0.7,0.7-1.7,1.1-2.8,1.1C346.4,475.5,344.9,474,344.9,471.7z M348.4,468.9
				c-1.5,0-2.3,1.3-2.3,2.4h4.6C350.7,470.3,350,468.9,348.4,468.9z"/>
			<path class="st39" d="M358.4,475.3v-1.1c-0.5,0.7-1.4,1.2-2.4,1.2c-1.8,0-3.1-1.4-3.1-3.7c0-2.3,1.3-3.7,3.1-3.7
				c1,0,1.8,0.5,2.4,1.2v-3.8h1.1v9.8h-1.1V475.3z M358.4,473.4v-3.2c-0.4-0.6-1.2-1.1-2.1-1.1c-1.4,0-2.3,1.2-2.3,2.7
				c0,1.6,0.8,2.7,2.3,2.7C357.1,474.5,358,474,358.4,473.4z"/>
			<path class="st39" d="M364.7,475.3v-9.8h1.1v3.8c0.6-0.8,1.4-1.2,2.4-1.2c1.8,0,3.1,1.5,3.1,3.7c0,2.3-1.3,3.7-3.1,3.7
				c-1,0-1.9-0.5-2.4-1.2v1.1h-1.1V475.3z M367.9,474.5c1.4,0,2.3-1.2,2.3-2.7c0-1.6-0.8-2.7-2.3-2.7c-0.9,0-1.7,0.5-2.1,1.1v3.2
				C366.2,474,367,474.5,367.9,474.5z"/>
			<path class="st39" d="M372.5,477.1c0.2,0.1,0.4,0.1,0.6,0.1c0.5,0,0.8-0.2,1.1-0.7l0.5-1.1l-3-7.1h1.2l2.4,5.8l2.3-5.8h1.2
				l-3.5,8.5c-0.4,1-1.1,1.4-2.1,1.4c-0.2,0-0.6,0-0.8-0.1L372.5,477.1z"/>
		</g>
	</g>
</g>
</svg>
